<mxfile host="app.diagrams.net" modified="2024-05-28T20:43:21.346Z" agent="Mozilla/5.0 (Macintosh; Intel Mac OS X 10_15_7) AppleWebKit/537.36 (KHTML, like Gecko) Chrome/124.0.0.0 Safari/537.36" etag="HI9EJ3WpbdTWkDqr84ZR" version="24.4.9" type="device" pages="5">
  <diagram name="Страница — 1" id="zbx2GcKLtXs4oYEVn3EA">
    <mxGraphModel dx="590" dy="412" grid="0" gridSize="10" guides="1" tooltips="1" connect="1" arrows="1" fold="1" page="1" pageScale="1" pageWidth="827" pageHeight="1169" math="0" shadow="0">
      <root>
        <mxCell id="0" />
        <mxCell id="1" parent="0" />
        <mxCell id="3Rcljeo7bTvNAtQNGWG2-14" style="edgeStyle=orthogonalEdgeStyle;rounded=0;orthogonalLoop=1;jettySize=auto;html=1;startArrow=classic;startFill=1;" parent="1" source="3Rcljeo7bTvNAtQNGWG2-1" target="3Rcljeo7bTvNAtQNGWG2-5" edge="1">
          <mxGeometry relative="1" as="geometry">
            <Array as="points">
              <mxPoint x="332" y="140" />
              <mxPoint x="332" y="140" />
            </Array>
          </mxGeometry>
        </mxCell>
        <mxCell id="3Rcljeo7bTvNAtQNGWG2-1" value="WebClient (Browser)" style="verticalAlign=top;align=left;spacingTop=8;spacingLeft=2;spacingRight=12;shape=cube;size=10;direction=south;fontStyle=4;html=1;whiteSpace=wrap;" parent="1" vertex="1">
          <mxGeometry x="22" y="80" width="200" height="120" as="geometry" />
        </mxCell>
        <mxCell id="3Rcljeo7bTvNAtQNGWG2-2" value="React" style="shape=module;align=left;spacingLeft=20;align=center;verticalAlign=top;whiteSpace=wrap;html=1;" parent="1" vertex="1">
          <mxGeometry x="52" y="120" width="140" height="50" as="geometry" />
        </mxCell>
        <mxCell id="3Rcljeo7bTvNAtQNGWG2-4" value="(OSType=Linux,Library=React)" style="text;strokeColor=none;fillColor=none;align=center;verticalAlign=top;spacingLeft=4;spacingRight=4;overflow=hidden;rotatable=0;points=[[0,0.5],[1,0.5]];portConstraint=eastwest;whiteSpace=wrap;html=1;" parent="1" vertex="1">
          <mxGeometry x="22" y="174" width="190" height="26" as="geometry" />
        </mxCell>
        <mxCell id="3Rcljeo7bTvNAtQNGWG2-5" value="WebServer" style="verticalAlign=top;align=left;spacingTop=8;spacingLeft=2;spacingRight=12;shape=cube;size=10;direction=south;fontStyle=4;html=1;whiteSpace=wrap;" parent="1" vertex="1">
          <mxGeometry x="325" y="80" width="210" height="350" as="geometry" />
        </mxCell>
        <mxCell id="3Rcljeo7bTvNAtQNGWG2-7" value="(OSType=Linux,Framework=Nest.js)" style="text;strokeColor=none;fillColor=none;align=center;verticalAlign=top;spacingLeft=4;spacingRight=4;overflow=hidden;rotatable=0;points=[[0,0.5],[1,0.5]];portConstraint=eastwest;whiteSpace=wrap;html=1;" parent="1" vertex="1">
          <mxGeometry x="325" y="404" width="203" height="26" as="geometry" />
        </mxCell>
        <mxCell id="3Rcljeo7bTvNAtQNGWG2-9" value="DB Server&lt;span style=&quot;white-space: pre;&quot;&gt;&#x9;&lt;/span&gt;" style="verticalAlign=top;align=left;spacingTop=8;spacingLeft=2;spacingRight=12;shape=cube;size=10;direction=south;fontStyle=4;html=1;whiteSpace=wrap;" parent="1" vertex="1">
          <mxGeometry x="22" y="270" width="200" height="160" as="geometry" />
        </mxCell>
        <mxCell id="3Rcljeo7bTvNAtQNGWG2-11" value="(OSType=Linux,DBMS=MongoDB)" style="text;strokeColor=none;fillColor=none;align=center;verticalAlign=top;spacingLeft=4;spacingRight=4;overflow=hidden;rotatable=0;points=[[0,0.5],[1,0.5]];portConstraint=eastwest;whiteSpace=wrap;html=1;" parent="1" vertex="1">
          <mxGeometry x="12" y="404" width="210" height="26" as="geometry" />
        </mxCell>
        <mxCell id="3Rcljeo7bTvNAtQNGWG2-13" value="Database" style="shape=cylinder3;whiteSpace=wrap;html=1;boundedLbl=1;backgroundOutline=1;size=15;" parent="1" vertex="1">
          <mxGeometry x="37" y="327.5" width="160" height="55" as="geometry" />
        </mxCell>
        <mxCell id="3Rcljeo7bTvNAtQNGWG2-17" value="HTTP 1.1&amp;nbsp;" style="text;strokeColor=none;fillColor=none;align=center;verticalAlign=top;spacingLeft=4;spacingRight=4;overflow=hidden;rotatable=0;points=[[0,0.5],[1,0.5]];portConstraint=eastwest;whiteSpace=wrap;html=1;" parent="1" vertex="1">
          <mxGeometry x="205" y="110" width="140" height="26" as="geometry" />
        </mxCell>
        <mxCell id="3Rcljeo7bTvNAtQNGWG2-18" value="TCP" style="text;strokeColor=none;fillColor=none;align=center;verticalAlign=top;spacingLeft=4;spacingRight=4;overflow=hidden;rotatable=0;points=[[0,0.5],[1,0.5]];portConstraint=eastwest;whiteSpace=wrap;html=1;" parent="1" vertex="1">
          <mxGeometry x="205" y="320" width="140" height="26" as="geometry" />
        </mxCell>
        <mxCell id="3Rcljeo7bTvNAtQNGWG2-22" value="" style="edgeStyle=orthogonalEdgeStyle;rounded=0;orthogonalLoop=1;jettySize=auto;html=1;startArrow=classic;startFill=1;" parent="1" source="3Rcljeo7bTvNAtQNGWG2-9" target="3Rcljeo7bTvNAtQNGWG2-5" edge="1">
          <mxGeometry relative="1" as="geometry">
            <mxPoint x="242" y="355" as="sourcePoint" />
            <mxPoint x="362" y="355" as="targetPoint" />
            <Array as="points">
              <mxPoint x="332" y="355" />
              <mxPoint x="332" y="355" />
            </Array>
          </mxGeometry>
        </mxCell>
        <mxCell id="2eNvBFCcLTC__rvVOUhq-3" value="Nest.js" style="shape=module;align=left;spacingLeft=20;align=center;verticalAlign=top;whiteSpace=wrap;html=1;" parent="1" vertex="1">
          <mxGeometry x="355" y="156" width="140" height="50" as="geometry" />
        </mxCell>
        <mxCell id="z4ZKiX4vswqvLc74OhSH-2" value="Mongoose" style="shape=module;align=left;spacingLeft=20;align=center;verticalAlign=top;whiteSpace=wrap;html=1;" parent="1" vertex="1">
          <mxGeometry x="353" y="290" width="140" height="50" as="geometry" />
        </mxCell>
        <mxCell id="s_u01Ixiek1-EOladDlU-1" value="WS" style="text;strokeColor=none;fillColor=none;align=center;verticalAlign=top;spacingLeft=4;spacingRight=4;overflow=hidden;rotatable=0;points=[[0,0.5],[1,0.5]];portConstraint=eastwest;whiteSpace=wrap;html=1;" vertex="1" parent="1">
          <mxGeometry x="205" y="142" width="140" height="26" as="geometry" />
        </mxCell>
      </root>
    </mxGraphModel>
  </diagram>
  <diagram id="5y-6Liaz1025JyDQJ5T1" name="Page-2">
    <mxGraphModel dx="378" dy="3058" grid="1" gridSize="10" guides="1" tooltips="1" connect="1" arrows="1" fold="1" page="1" pageScale="1" pageWidth="850" pageHeight="1100" math="0" shadow="0">
      <root>
        <mxCell id="0" />
        <mxCell id="1" parent="0" />
        <mxCell id="WXsLsYNulkNqcor8jC9N-1" value="" style="shape=table;startSize=0;container=1;collapsible=0;childLayout=tableLayout;" parent="1" vertex="1">
          <mxGeometry x="2150" y="-1856.5" width="250" height="236.5" as="geometry" />
        </mxCell>
        <mxCell id="WXsLsYNulkNqcor8jC9N-2" value="" style="shape=tableRow;horizontal=0;startSize=0;swimlaneHead=0;swimlaneBody=0;strokeColor=inherit;top=0;left=0;bottom=0;right=0;collapsible=0;dropTarget=0;fillColor=none;points=[[0,0.5],[1,0.5]];portConstraint=eastwest;" parent="WXsLsYNulkNqcor8jC9N-1" vertex="1">
          <mxGeometry width="250" height="63" as="geometry" />
        </mxCell>
        <mxCell id="WXsLsYNulkNqcor8jC9N-3" value="&lt;font face=&quot;Times New Roman&quot; style=&quot;font-size: 14px;&quot;&gt;ChatsStore&lt;/font&gt;" style="shape=partialRectangle;html=1;whiteSpace=wrap;connectable=0;strokeColor=inherit;overflow=hidden;fillColor=none;top=0;left=0;bottom=0;right=0;pointerEvents=1;" parent="WXsLsYNulkNqcor8jC9N-2" vertex="1">
          <mxGeometry width="250" height="63" as="geometry">
            <mxRectangle width="250" height="63" as="alternateBounds" />
          </mxGeometry>
        </mxCell>
        <mxCell id="WXsLsYNulkNqcor8jC9N-4" value="" style="shape=tableRow;horizontal=0;startSize=0;swimlaneHead=0;swimlaneBody=0;strokeColor=inherit;top=0;left=0;bottom=0;right=0;collapsible=0;dropTarget=0;fillColor=none;points=[[0,0.5],[1,0.5]];portConstraint=eastwest;" parent="WXsLsYNulkNqcor8jC9N-1" vertex="1">
          <mxGeometry y="63" width="250" height="174" as="geometry" />
        </mxCell>
        <mxCell id="WXsLsYNulkNqcor8jC9N-5" value="&lt;blockquote style=&quot;margin: 0px 0px 0px 40px; border: none; padding: 0px; font-size: 14px;&quot;&gt;&lt;div&gt;&lt;font face=&quot;Times New Roman&quot;&gt;{&lt;/font&gt;&lt;/div&gt;&lt;div&gt;&lt;font face=&quot;Y-Q66v2oYfCct8fZWHVj&quot;&gt;&lt;span style=&quot;white-space: pre;&quot;&gt;&#x9;&lt;/span&gt;_id: &amp;lt;ObjectId&amp;gt;,&lt;/font&gt;&lt;/div&gt;&lt;div&gt;&lt;span style=&quot;&quot;&gt;&lt;font face=&quot;Y-Q66v2oYfCct8fZWHVj&quot;&gt;&lt;span style=&quot;&quot;&gt;&lt;span style=&quot;white-space: pre;&quot;&gt;&amp;nbsp;&amp;nbsp;&amp;nbsp;&amp;nbsp;&lt;span style=&quot;white-space: pre;&quot;&gt;&#x9;&lt;/span&gt;&lt;/span&gt;&lt;/span&gt;participants: &amp;lt;Array&amp;gt;,&lt;/font&gt;&lt;/span&gt;&lt;/div&gt;&lt;div&gt;&lt;span style=&quot;&quot;&gt;&lt;font face=&quot;Y-Q66v2oYfCct8fZWHVj&quot;&gt;&lt;span style=&quot;&quot;&gt;&lt;span style=&quot;white-space: pre;&quot;&gt;&amp;nbsp;&amp;nbsp;&amp;nbsp;&amp;nbsp;&lt;span style=&quot;white-space: pre;&quot;&gt;&#x9;&lt;/span&gt;messages&lt;/span&gt;&lt;/span&gt;: &amp;lt;Array&amp;gt; {&lt;/font&gt;&lt;/span&gt;&lt;/div&gt;&lt;div&gt;&lt;span style=&quot;&quot;&gt;&lt;font face=&quot;Y-Q66v2oYfCct8fZWHVj&quot;&gt;&lt;span style=&quot;white-space: pre;&quot;&gt;&#x9;&lt;/span&gt;&lt;span style=&quot;white-space: pre;&quot;&gt;&#x9;&lt;/span&gt;ownerId: &amp;lt;ObjectId&amp;gt;,&lt;br&gt;&lt;/font&gt;&lt;/span&gt;&lt;/div&gt;&lt;div&gt;&lt;span style=&quot;&quot;&gt;&lt;font face=&quot;Y-Q66v2oYfCct8fZWHVj&quot;&gt;&lt;span style=&quot;white-space: pre;&quot;&gt;&#x9;&lt;/span&gt;&lt;span style=&quot;white-space: pre;&quot;&gt;&#x9;&lt;/span&gt;text: &amp;lt;String&amp;gt;,&lt;br&gt;&lt;/font&gt;&lt;/span&gt;&lt;/div&gt;&lt;div&gt;&lt;span style=&quot;&quot;&gt;&lt;font face=&quot;Y-Q66v2oYfCct8fZWHVj&quot;&gt;&lt;span style=&quot;white-space: pre;&quot;&gt;&#x9;&lt;/span&gt;&lt;span style=&quot;white-space: pre;&quot;&gt;&#x9;&lt;/span&gt;date: &amp;lt;Date&amp;gt;,&lt;/font&gt;&lt;/span&gt;&lt;/div&gt;&lt;div&gt;&lt;span style=&quot;&quot;&gt;&lt;font face=&quot;Y-Q66v2oYfCct8fZWHVj&quot;&gt;&lt;span style=&quot;white-space: pre;&quot;&gt;&#x9;&lt;/span&gt;&lt;span style=&quot;white-space: pre;&quot;&gt;&#x9;&lt;/span&gt;}&lt;/font&gt;&lt;/span&gt;&lt;/div&gt;&lt;div style=&quot;&quot;&gt;&lt;span style=&quot;background-color: initial;&quot;&gt;&lt;font face=&quot;Y-Q66v2oYfCct8fZWHVj&quot;&gt;}&lt;/font&gt;&lt;/span&gt;&lt;/div&gt;&lt;/blockquote&gt;&lt;div&gt;&lt;span style=&quot;&quot;&gt;&lt;/span&gt;&lt;/div&gt;" style="shape=partialRectangle;html=1;whiteSpace=wrap;connectable=0;strokeColor=inherit;overflow=hidden;fillColor=none;top=0;left=0;bottom=0;right=0;pointerEvents=1;align=left;" parent="WXsLsYNulkNqcor8jC9N-4" vertex="1">
          <mxGeometry width="250" height="174" as="geometry">
            <mxRectangle width="250" height="174" as="alternateBounds" />
          </mxGeometry>
        </mxCell>
        <mxCell id="WXsLsYNulkNqcor8jC9N-6" value="" style="shape=table;startSize=0;container=1;collapsible=0;childLayout=tableLayout;" parent="1" vertex="1">
          <mxGeometry x="1410" y="-1840" width="250" height="370" as="geometry" />
        </mxCell>
        <mxCell id="WXsLsYNulkNqcor8jC9N-7" value="" style="shape=tableRow;horizontal=0;startSize=0;swimlaneHead=0;swimlaneBody=0;strokeColor=inherit;top=0;left=0;bottom=0;right=0;collapsible=0;dropTarget=0;fillColor=none;points=[[0,0.5],[1,0.5]];portConstraint=eastwest;" parent="WXsLsYNulkNqcor8jC9N-6" vertex="1">
          <mxGeometry width="250" height="63" as="geometry" />
        </mxCell>
        <mxCell id="WXsLsYNulkNqcor8jC9N-8" value="&lt;font face=&quot;Times New Roman&quot; style=&quot;font-size: 14px;&quot;&gt;TasksStore&lt;/font&gt;" style="shape=partialRectangle;html=1;whiteSpace=wrap;connectable=0;strokeColor=inherit;overflow=hidden;fillColor=none;top=0;left=0;bottom=0;right=0;pointerEvents=1;" parent="WXsLsYNulkNqcor8jC9N-7" vertex="1">
          <mxGeometry width="250" height="63" as="geometry">
            <mxRectangle width="250" height="63" as="alternateBounds" />
          </mxGeometry>
        </mxCell>
        <mxCell id="WXsLsYNulkNqcor8jC9N-9" value="" style="shape=tableRow;horizontal=0;startSize=0;swimlaneHead=0;swimlaneBody=0;strokeColor=inherit;top=0;left=0;bottom=0;right=0;collapsible=0;dropTarget=0;fillColor=none;points=[[0,0.5],[1,0.5]];portConstraint=eastwest;" parent="WXsLsYNulkNqcor8jC9N-6" vertex="1">
          <mxGeometry y="63" width="250" height="307" as="geometry" />
        </mxCell>
        <mxCell id="WXsLsYNulkNqcor8jC9N-10" value="&lt;blockquote style=&quot;margin: 0px 0px 0px 40px; border: none; padding: 0px; font-size: 14px;&quot;&gt;&lt;div&gt;&lt;font face=&quot;Times New Roman&quot;&gt;{&lt;/font&gt;&lt;/div&gt;&lt;div&gt;&lt;font face=&quot;Times New Roman&quot;&gt;&amp;nbsp; &amp;nbsp; _id: &amp;lt;ObjectId&amp;gt;,&lt;/font&gt;&lt;/div&gt;&lt;div&gt;&lt;span style=&quot;&quot;&gt;&lt;font face=&quot;Times New Roman&quot;&gt;&lt;span style=&quot;&quot;&gt;&amp;nbsp;&amp;nbsp;&amp;nbsp;&amp;nbsp;&lt;/span&gt;name: &amp;lt;String&amp;gt;,&lt;/font&gt;&lt;/span&gt;&lt;/div&gt;&lt;div&gt;&lt;span style=&quot;&quot;&gt;&lt;font face=&quot;Times New Roman&quot;&gt;&lt;span style=&quot;&quot;&gt;&amp;nbsp;&amp;nbsp;&amp;nbsp;&amp;nbsp;&lt;/span&gt;description: &amp;lt;String&amp;gt;,&lt;/font&gt;&lt;/span&gt;&lt;/div&gt;&lt;div&gt;&lt;span style=&quot;&quot;&gt;&lt;font face=&quot;Times New Roman&quot;&gt;&lt;span style=&quot;&quot;&gt;&amp;nbsp;&amp;nbsp;&amp;nbsp;&amp;nbsp;&lt;/span&gt;price: &amp;lt;Float&amp;gt;,&lt;/font&gt;&lt;/span&gt;&lt;/div&gt;&lt;div&gt;&lt;span style=&quot;&quot;&gt;&lt;font face=&quot;Times New Roman&quot;&gt;&lt;span style=&quot;&quot;&gt;&amp;nbsp;&amp;nbsp;&amp;nbsp;&amp;nbsp;&lt;/span&gt;startDate: &amp;lt;Date&amp;gt;,&lt;/font&gt;&lt;/span&gt;&lt;/div&gt;&lt;div&gt;&lt;span style=&quot;&quot;&gt;&lt;font face=&quot;Times New Roman&quot;&gt;&lt;span style=&quot;&quot;&gt;&amp;nbsp;&amp;nbsp;&amp;nbsp;&amp;nbsp;&lt;/span&gt;endDate: &amp;lt;Date&amp;gt;,&lt;/font&gt;&lt;/span&gt;&lt;/div&gt;&lt;div&gt;&lt;span style=&quot;&quot;&gt;&lt;font face=&quot;Times New Roman&quot;&gt;&lt;span style=&quot;&quot;&gt;&amp;nbsp;&amp;nbsp;&amp;nbsp;&amp;nbsp;&lt;/span&gt;status: &amp;lt;String&amp;gt;,&lt;/font&gt;&lt;/span&gt;&lt;/div&gt;&lt;div&gt;&lt;span style=&quot;&quot;&gt;&lt;font face=&quot;Times New Roman&quot;&gt;&lt;span style=&quot;&quot;&gt;&amp;nbsp;&amp;nbsp;&amp;nbsp;&amp;nbsp;creatorId&lt;/span&gt;: &amp;lt;ObjectId&amp;gt;,&lt;/font&gt;&lt;/span&gt;&lt;/div&gt;&lt;div&gt;&lt;span style=&quot;&quot;&gt;&lt;font face=&quot;Times New Roman&quot;&gt;&amp;nbsp; &amp;nbsp; clientId: &amp;lt;ObjectId&amp;gt;,&lt;/font&gt;&lt;/span&gt;&lt;/div&gt;&lt;div&gt;&lt;font face=&quot;Times New Roman&quot;&gt;&lt;span style=&quot;&quot;&gt;&lt;span style=&quot;&quot;&gt;&amp;nbsp;&amp;nbsp;&amp;nbsp;&amp;nbsp;developerId&lt;/span&gt;: &amp;lt;&lt;/span&gt;ObjectId&lt;span style=&quot;&quot;&gt;&amp;gt;,&lt;/span&gt;&lt;/font&gt;&lt;/div&gt;&lt;div&gt;&lt;font face=&quot;Times New Roman&quot;&gt;&amp;nbsp;&amp;nbsp;&amp;nbsp;&amp;nbsp;comments: &amp;lt;Array&amp;gt; {&lt;br&gt;&lt;/font&gt;&lt;/div&gt;&lt;div&gt;&lt;font face=&quot;Times New Roman&quot;&gt;&lt;span style=&quot;white-space: pre;&quot;&gt;&#x9;&lt;/span&gt;ownerId: &amp;lt;ObjectId&amp;gt;,&lt;br&gt;&lt;/font&gt;&lt;/div&gt;&lt;div&gt;&lt;font face=&quot;Times New Roman&quot;&gt;&lt;span style=&quot;white-space: pre;&quot;&gt;&#x9;&lt;/span&gt;text: &amp;lt;String&amp;gt;,&lt;br&gt;&lt;/font&gt;&lt;/div&gt;&lt;div&gt;&lt;font face=&quot;Times New Roman&quot;&gt;&lt;span style=&quot;white-space: pre;&quot;&gt;&#x9;&lt;/span&gt;date: &amp;lt;Date&amp;gt;&lt;br&gt;&lt;/font&gt;&lt;/div&gt;&lt;div&gt;&lt;font face=&quot;Times New Roman&quot;&gt;&lt;span style=&quot;white-space: pre;&quot;&gt;&#x9;&lt;/span&gt;}&lt;/font&gt;&lt;/div&gt;&lt;div&gt;&lt;font face=&quot;Times New Roman&quot;&gt;}&lt;/font&gt;&lt;/div&gt;&lt;/blockquote&gt;" style="shape=partialRectangle;html=1;whiteSpace=wrap;connectable=0;strokeColor=inherit;overflow=hidden;fillColor=none;top=0;left=0;bottom=0;right=0;pointerEvents=1;align=left;" parent="WXsLsYNulkNqcor8jC9N-9" vertex="1">
          <mxGeometry width="250" height="307" as="geometry">
            <mxRectangle width="250" height="307" as="alternateBounds" />
          </mxGeometry>
        </mxCell>
        <mxCell id="WXsLsYNulkNqcor8jC9N-16" value="" style="edgeStyle=elbowEdgeStyle;fontSize=12;html=1;endArrow=ERone;startArrow=ERzeroToMany;rounded=0;exitX=1;exitY=0.5;exitDx=0;exitDy=0;jumpStyle=arc;startFill=0;endFill=0;entryX=-0.003;entryY=0.205;entryDx=0;entryDy=0;entryPerimeter=0;" parent="1" source="WXsLsYNulkNqcor8jC9N-9" target="WXsLsYNulkNqcor8jC9N-23" edge="1">
          <mxGeometry width="100" height="100" relative="1" as="geometry">
            <mxPoint x="1651.001" y="-1251.996" as="sourcePoint" />
            <mxPoint x="1740" y="-1820" as="targetPoint" />
          </mxGeometry>
        </mxCell>
        <mxCell id="WXsLsYNulkNqcor8jC9N-17" value="creatorId: _id" style="edgeLabel;html=1;align=center;verticalAlign=middle;resizable=0;points=[];" parent="WXsLsYNulkNqcor8jC9N-16" connectable="0" vertex="1">
          <mxGeometry relative="1" as="geometry">
            <mxPoint as="offset" />
          </mxGeometry>
        </mxCell>
        <mxCell id="WXsLsYNulkNqcor8jC9N-18" value="" style="edgeStyle=elbowEdgeStyle;fontSize=12;html=1;endArrow=ERzeroToMany;endFill=1;startArrow=ERmany;rounded=0;exitX=0.996;exitY=0.198;exitDx=0;exitDy=0;exitPerimeter=0;startFill=0;entryX=-0.002;entryY=0.306;entryDx=0;entryDy=0;entryPerimeter=0;" parent="1" source="WXsLsYNulkNqcor8jC9N-23" target="WXsLsYNulkNqcor8jC9N-4" edge="1">
          <mxGeometry width="100" height="100" relative="1" as="geometry">
            <mxPoint x="2035.996" y="-1678" as="sourcePoint" />
            <mxPoint x="2148" y="-1741" as="targetPoint" />
          </mxGeometry>
        </mxCell>
        <mxCell id="WXsLsYNulkNqcor8jC9N-19" value="_id: participants" style="edgeLabel;html=1;align=center;verticalAlign=middle;resizable=0;points=[];" parent="WXsLsYNulkNqcor8jC9N-18" connectable="0" vertex="1">
          <mxGeometry relative="1" as="geometry">
            <mxPoint as="offset" />
          </mxGeometry>
        </mxCell>
        <mxCell id="WXsLsYNulkNqcor8jC9N-20" value="" style="shape=table;startSize=0;container=1;collapsible=0;childLayout=tableLayout;" parent="1" vertex="1">
          <mxGeometry x="1746" y="-1917" width="250" height="237" as="geometry" />
        </mxCell>
        <mxCell id="WXsLsYNulkNqcor8jC9N-21" value="" style="shape=tableRow;horizontal=0;startSize=0;swimlaneHead=0;swimlaneBody=0;strokeColor=inherit;top=0;left=0;bottom=0;right=0;collapsible=0;dropTarget=0;fillColor=none;points=[[0,0.5],[1,0.5]];portConstraint=eastwest;" parent="WXsLsYNulkNqcor8jC9N-20" vertex="1">
          <mxGeometry width="250" height="63" as="geometry" />
        </mxCell>
        <mxCell id="WXsLsYNulkNqcor8jC9N-22" value="&lt;font face=&quot;Times New Roman&quot; style=&quot;font-size: 14px;&quot;&gt;UsersStore&lt;/font&gt;" style="shape=partialRectangle;html=1;whiteSpace=wrap;connectable=0;strokeColor=inherit;overflow=hidden;fillColor=none;top=0;left=0;bottom=0;right=0;pointerEvents=1;" parent="WXsLsYNulkNqcor8jC9N-21" vertex="1">
          <mxGeometry width="250" height="63" as="geometry">
            <mxRectangle width="250" height="63" as="alternateBounds" />
          </mxGeometry>
        </mxCell>
        <mxCell id="WXsLsYNulkNqcor8jC9N-23" value="" style="shape=tableRow;horizontal=0;startSize=0;swimlaneHead=0;swimlaneBody=0;strokeColor=inherit;top=0;left=0;bottom=0;right=0;collapsible=0;dropTarget=0;fillColor=none;points=[[0,0.5],[1,0.5]];portConstraint=eastwest;" parent="WXsLsYNulkNqcor8jC9N-20" vertex="1">
          <mxGeometry y="63" width="250" height="174" as="geometry" />
        </mxCell>
        <mxCell id="WXsLsYNulkNqcor8jC9N-24" value="&lt;blockquote style=&quot;margin: 0px 0px 0px 40px; border: none; padding: 0px; font-size: 14px;&quot;&gt;&lt;div&gt;&lt;font face=&quot;Times New Roman&quot;&gt;{&lt;/font&gt;&lt;/div&gt;&lt;blockquote style=&quot;margin: 0 0 0 40px; border: none; padding: 0px;&quot;&gt;&lt;div&gt;&lt;font face=&quot;E1ct5EVytm3DCiqQkAVY&quot;&gt;&amp;nbsp; &amp;nbsp; _id: &amp;lt;ObjectId&amp;gt;,&lt;/font&gt;&lt;/div&gt;&lt;/blockquote&gt;&lt;blockquote style=&quot;margin: 0 0 0 40px; border: none; padding: 0px;&quot;&gt;&lt;div&gt;&lt;span style=&quot;&quot;&gt;&lt;font face=&quot;E1ct5EVytm3DCiqQkAVY&quot;&gt;&lt;span style=&quot;&quot;&gt;&lt;span style=&quot;&quot;&gt;&amp;nbsp;&amp;nbsp;&amp;nbsp;&amp;nbsp;&lt;/span&gt;&lt;/span&gt;nickname: &amp;lt;String&amp;gt;,&lt;/font&gt;&lt;/span&gt;&lt;/div&gt;&lt;/blockquote&gt;&lt;blockquote style=&quot;margin: 0 0 0 40px; border: none; padding: 0px;&quot;&gt;&lt;div&gt;&lt;span style=&quot;&quot;&gt;&lt;font face=&quot;E1ct5EVytm3DCiqQkAVY&quot;&gt;&lt;span style=&quot;&quot;&gt;&lt;span style=&quot;&quot;&gt;&amp;nbsp;&amp;nbsp;&amp;nbsp;&amp;nbsp;&lt;/span&gt;&lt;/span&gt;passwordHash: &amp;lt;String&amp;gt;,&lt;/font&gt;&lt;/span&gt;&lt;/div&gt;&lt;/blockquote&gt;&lt;blockquote style=&quot;margin: 0 0 0 40px; border: none; padding: 0px;&quot;&gt;&lt;div&gt;&lt;span style=&quot;&quot;&gt;&lt;font face=&quot;E1ct5EVytm3DCiqQkAVY&quot;&gt;&lt;span style=&quot;&quot;&gt;&lt;span style=&quot;&quot;&gt;&amp;nbsp;&amp;nbsp;&amp;nbsp;&amp;nbsp;&lt;/span&gt;&lt;/span&gt;email: &amp;lt;String&amp;gt;,&amp;nbsp;&lt;/font&gt;&lt;/span&gt;&lt;/div&gt;&lt;/blockquote&gt;&lt;blockquote style=&quot;margin: 0 0 0 40px; border: none; padding: 0px;&quot;&gt;&lt;div&gt;&lt;font face=&quot;E1ct5EVytm3DCiqQkAVY&quot;&gt;&amp;nbsp; &amp;nbsp; role:&amp;nbsp;&lt;span style=&quot;&quot;&gt;&lt;/span&gt;&lt;span style=&quot;border-color: var(--border-color);&quot;&gt;&amp;lt;String&amp;gt;,&lt;/span&gt;&lt;/font&gt;&lt;/div&gt;&lt;div&gt;&lt;span style=&quot;background-color: initial;&quot;&gt;&lt;font face=&quot;E1ct5EVytm3DCiqQkAVY&quot;&gt;&amp;nbsp; &amp;nbsp; isBlocked: &amp;lt;Boolean&amp;gt;,&lt;/font&gt;&lt;/span&gt;&lt;/div&gt;&lt;div&gt;&lt;span style=&quot;background-color: initial;&quot;&gt;&lt;font face=&quot;E1ct5EVytm3DCiqQkAVY&quot;&gt;&amp;nbsp; &amp;nbsp; isDeleted: &amp;lt;Boolean&amp;gt;&amp;nbsp; &amp;nbsp;&lt;/font&gt;&lt;/span&gt;&lt;/div&gt;&lt;/blockquote&gt;&lt;div&gt;&lt;font face=&quot;E1ct5EVytm3DCiqQkAVY&quot;&gt;}&lt;/font&gt;&lt;/div&gt;&lt;/blockquote&gt;" style="shape=partialRectangle;html=1;whiteSpace=wrap;connectable=0;strokeColor=inherit;overflow=hidden;fillColor=none;top=0;left=0;bottom=0;right=0;pointerEvents=1;align=left;" parent="WXsLsYNulkNqcor8jC9N-23" vertex="1">
          <mxGeometry width="250" height="174" as="geometry">
            <mxRectangle width="250" height="174" as="alternateBounds" />
          </mxGeometry>
        </mxCell>
      </root>
    </mxGraphModel>
  </diagram>
  <diagram id="GRIflQFPg7dr2Wm1QFzL" name="Page-3">
    <mxGraphModel dx="2078" dy="1958" grid="1" gridSize="10" guides="1" tooltips="1" connect="1" arrows="1" fold="1" page="1" pageScale="1" pageWidth="850" pageHeight="1100" math="0" shadow="0">
      <root>
        <mxCell id="0" />
        <mxCell id="1" parent="0" />
        <mxCell id="s_LDJAl6rmBIWn_Og3qK-2" value="" style="rounded=0;whiteSpace=wrap;html=1;fontSize=14;fontFamily=Times New Roman;" parent="1" vertex="1">
          <mxGeometry x="62" y="-390" width="788" height="810" as="geometry" />
        </mxCell>
        <mxCell id="S7Bjx_D4qbjC-CG2y2N_-3" style="rounded=0;orthogonalLoop=1;jettySize=auto;html=1;exitX=1;exitY=0.3333333333333333;exitDx=0;exitDy=0;exitPerimeter=0;entryX=0;entryY=0.5;entryDx=0;entryDy=0;" edge="1" parent="1" source="s_LDJAl6rmBIWn_Og3qK-3" target="s_LDJAl6rmBIWn_Og3qK-79">
          <mxGeometry relative="1" as="geometry" />
        </mxCell>
        <mxCell id="S7Bjx_D4qbjC-CG2y2N_-4" style="rounded=0;orthogonalLoop=1;jettySize=auto;html=1;exitX=1;exitY=0.3333333333333333;exitDx=0;exitDy=0;exitPerimeter=0;entryX=0;entryY=0.5;entryDx=0;entryDy=0;" edge="1" parent="1" source="s_LDJAl6rmBIWn_Og3qK-3" target="6ttf6B_3B5VSx62_QD5f-4">
          <mxGeometry relative="1" as="geometry" />
        </mxCell>
        <mxCell id="S7Bjx_D4qbjC-CG2y2N_-15" style="rounded=0;orthogonalLoop=1;jettySize=auto;html=1;exitX=1;exitY=0.3333333333333333;exitDx=0;exitDy=0;exitPerimeter=0;entryX=0;entryY=0.5;entryDx=0;entryDy=0;" edge="1" parent="1" source="s_LDJAl6rmBIWn_Og3qK-3" target="S7Bjx_D4qbjC-CG2y2N_-14">
          <mxGeometry relative="1" as="geometry" />
        </mxCell>
        <mxCell id="s_LDJAl6rmBIWn_Og3qK-3" value="Менеджер" style="shape=umlActor;verticalLabelPosition=bottom;verticalAlign=top;html=1;outlineConnect=0;fontSize=14;fontFamily=Times New Roman;" parent="1" vertex="1">
          <mxGeometry x="-120" y="-180" width="76" height="127" as="geometry" />
        </mxCell>
        <mxCell id="SIvdP8dLgLCGvQz9bPbX-1" style="edgeStyle=orthogonalEdgeStyle;rounded=0;orthogonalLoop=1;jettySize=auto;html=1;exitX=0.5;exitY=0;exitDx=0;exitDy=0;exitPerimeter=0;startArrow=block;startFill=0;endArrow=none;endFill=0;" parent="1" source="s_LDJAl6rmBIWn_Og3qK-4" edge="1">
          <mxGeometry relative="1" as="geometry">
            <mxPoint x="961" y="-206" as="targetPoint" />
          </mxGeometry>
        </mxCell>
        <mxCell id="SogY0RDH6iVAp-51KngU-3" style="rounded=0;orthogonalLoop=1;jettySize=auto;html=1;exitX=0;exitY=0.3333333333333333;exitDx=0;exitDy=0;exitPerimeter=0;entryX=1;entryY=0.5;entryDx=0;entryDy=0;" parent="1" source="s_LDJAl6rmBIWn_Og3qK-4" target="s_LDJAl6rmBIWn_Og3qK-7" edge="1">
          <mxGeometry relative="1" as="geometry" />
        </mxCell>
        <mxCell id="SogY0RDH6iVAp-51KngU-4" style="rounded=0;orthogonalLoop=1;jettySize=auto;html=1;exitX=0;exitY=0.3333333333333333;exitDx=0;exitDy=0;exitPerimeter=0;entryX=1;entryY=0.5;entryDx=0;entryDy=0;" parent="1" source="s_LDJAl6rmBIWn_Og3qK-4" target="s_LDJAl6rmBIWn_Og3qK-22" edge="1">
          <mxGeometry relative="1" as="geometry" />
        </mxCell>
        <mxCell id="SogY0RDH6iVAp-51KngU-6" style="rounded=0;orthogonalLoop=1;jettySize=auto;html=1;exitX=0;exitY=0.3333333333333333;exitDx=0;exitDy=0;exitPerimeter=0;entryX=1;entryY=0.5;entryDx=0;entryDy=0;" parent="1" source="s_LDJAl6rmBIWn_Og3qK-4" target="SogY0RDH6iVAp-51KngU-5" edge="1">
          <mxGeometry relative="1" as="geometry" />
        </mxCell>
        <mxCell id="s_LDJAl6rmBIWn_Og3qK-4" value="Клиент" style="shape=umlActor;verticalLabelPosition=bottom;verticalAlign=top;html=1;outlineConnect=0;fontSize=14;fontFamily=Times New Roman;" parent="1" vertex="1">
          <mxGeometry x="922" y="203" width="78" height="124" as="geometry" />
        </mxCell>
        <mxCell id="s_LDJAl6rmBIWn_Og3qK-7" value="Создание чата" style="ellipse;whiteSpace=wrap;html=1;fontSize=14;fontFamily=Times New Roman;" parent="1" vertex="1">
          <mxGeometry x="636" y="194" width="149" height="77" as="geometry" />
        </mxCell>
        <mxCell id="S7Bjx_D4qbjC-CG2y2N_-9" style="rounded=0;orthogonalLoop=1;jettySize=auto;html=1;exitX=1;exitY=0.3333333333333333;exitDx=0;exitDy=0;exitPerimeter=0;entryX=0;entryY=0.5;entryDx=0;entryDy=0;" edge="1" parent="1" source="s_LDJAl6rmBIWn_Og3qK-20" target="R7weEpu5aKAvj2d67Wgz-1">
          <mxGeometry relative="1" as="geometry" />
        </mxCell>
        <mxCell id="s_LDJAl6rmBIWn_Og3qK-20" value="Администратор" style="shape=umlActor;verticalLabelPosition=bottom;verticalAlign=top;html=1;outlineConnect=0;fontSize=14;fontFamily=Times New Roman;" parent="1" vertex="1">
          <mxGeometry x="-120" y="156" width="76" height="127" as="geometry" />
        </mxCell>
        <mxCell id="s_LDJAl6rmBIWn_Og3qK-22" value="Просмотр статусов&amp;nbsp;&lt;div&gt;задач на канбан-доске&lt;/div&gt;" style="ellipse;whiteSpace=wrap;html=1;fontSize=14;fontFamily=Times New Roman;" parent="1" vertex="1">
          <mxGeometry x="630" y="284" width="161" height="79" as="geometry" />
        </mxCell>
        <mxCell id="SogY0RDH6iVAp-51KngU-7" style="rounded=0;orthogonalLoop=1;jettySize=auto;html=1;exitX=0;exitY=0.3333333333333333;exitDx=0;exitDy=0;exitPerimeter=0;entryX=1;entryY=0.5;entryDx=0;entryDy=0;" parent="1" source="s_LDJAl6rmBIWn_Og3qK-69" target="s_LDJAl6rmBIWn_Og3qK-70" edge="1">
          <mxGeometry relative="1" as="geometry" />
        </mxCell>
        <mxCell id="s_LDJAl6rmBIWn_Og3qK-69" value="Разработчик" style="shape=umlActor;verticalLabelPosition=bottom;verticalAlign=top;html=1;outlineConnect=0;fontSize=14;fontFamily=Times New Roman;" parent="1" vertex="1">
          <mxGeometry x="922" y="-360" width="78" height="124" as="geometry" />
        </mxCell>
        <mxCell id="s_LDJAl6rmBIWn_Og3qK-70" value="Создание комментариев&lt;div&gt;&amp;nbsp;к назначенным задачам&lt;/div&gt;" style="ellipse;whiteSpace=wrap;html=1;fontSize=14;fontFamily=Times New Roman;" parent="1" vertex="1">
          <mxGeometry x="610" y="-338" width="162" height="80" as="geometry" />
        </mxCell>
        <mxCell id="s_LDJAl6rmBIWn_Og3qK-79" value="Изменение статуса&amp;nbsp;&lt;div&gt;задачи на канбан-доске&lt;/div&gt;" style="ellipse;whiteSpace=wrap;html=1;fontSize=14;fontFamily=Times New Roman;" parent="1" vertex="1">
          <mxGeometry x="118" y="-160" width="157" height="80" as="geometry" />
        </mxCell>
        <mxCell id="S7Bjx_D4qbjC-CG2y2N_-10" style="rounded=0;orthogonalLoop=1;jettySize=auto;html=1;exitX=1;exitY=0;exitDx=0;exitDy=0;entryX=0;entryY=1;entryDx=0;entryDy=0;dashed=1;endArrow=open;endFill=0;" edge="1" parent="1" source="R7weEpu5aKAvj2d67Wgz-1" target="S7Bjx_D4qbjC-CG2y2N_-5">
          <mxGeometry relative="1" as="geometry" />
        </mxCell>
        <mxCell id="S7Bjx_D4qbjC-CG2y2N_-11" style="rounded=0;orthogonalLoop=1;jettySize=auto;html=1;exitX=1;exitY=0.5;exitDx=0;exitDy=0;entryX=0;entryY=0.5;entryDx=0;entryDy=0;dashed=1;endArrow=open;endFill=0;" edge="1" parent="1" source="R7weEpu5aKAvj2d67Wgz-1" target="S7Bjx_D4qbjC-CG2y2N_-6">
          <mxGeometry relative="1" as="geometry" />
        </mxCell>
        <mxCell id="S7Bjx_D4qbjC-CG2y2N_-12" style="rounded=0;orthogonalLoop=1;jettySize=auto;html=1;exitX=1;exitY=1;exitDx=0;exitDy=0;entryX=0;entryY=0;entryDx=0;entryDy=0;dashed=1;endArrow=open;endFill=0;" edge="1" parent="1" source="R7weEpu5aKAvj2d67Wgz-1" target="S7Bjx_D4qbjC-CG2y2N_-7">
          <mxGeometry relative="1" as="geometry" />
        </mxCell>
        <mxCell id="S7Bjx_D4qbjC-CG2y2N_-13" style="rounded=0;orthogonalLoop=1;jettySize=auto;html=1;exitX=0.5;exitY=1;exitDx=0;exitDy=0;entryX=0;entryY=0;entryDx=0;entryDy=0;dashed=1;endArrow=open;endFill=0;" edge="1" parent="1" source="R7weEpu5aKAvj2d67Wgz-1" target="S7Bjx_D4qbjC-CG2y2N_-8">
          <mxGeometry relative="1" as="geometry" />
        </mxCell>
        <mxCell id="R7weEpu5aKAvj2d67Wgz-1" value="Управление пользователями приложения" style="ellipse;whiteSpace=wrap;html=1;fontSize=14;fontFamily=Times New Roman;" parent="1" vertex="1">
          <mxGeometry x="106" y="117.5" width="154" height="85.5" as="geometry" />
        </mxCell>
        <mxCell id="6ttf6B_3B5VSx62_QD5f-2" value="Общаться с помощью чата" style="ellipse;whiteSpace=wrap;html=1;fontSize=14;fontFamily=Times New Roman;" parent="1" vertex="1">
          <mxGeometry x="106" y="277.5" width="154" height="85.5" as="geometry" />
        </mxCell>
        <mxCell id="6ttf6B_3B5VSx62_QD5f-4" value="Создание комментариев&amp;nbsp;&lt;div&gt;к задачам&lt;/div&gt;" style="ellipse;whiteSpace=wrap;html=1;fontSize=14;fontFamily=Times New Roman;" parent="1" vertex="1">
          <mxGeometry x="118" y="-70" width="157" height="80" as="geometry" />
        </mxCell>
        <mxCell id="MlgKjPO_9vkNqrJ9BN_b-1" style="edgeStyle=orthogonalEdgeStyle;rounded=0;orthogonalLoop=1;jettySize=auto;html=1;exitX=0.5;exitY=0;exitDx=0;exitDy=0;exitPerimeter=0;entryX=0.5;entryY=0;entryDx=0;entryDy=0;entryPerimeter=0;endArrow=block;endFill=0;" parent="1" source="s_LDJAl6rmBIWn_Og3qK-3" target="s_LDJAl6rmBIWn_Og3qK-69" edge="1">
          <mxGeometry relative="1" as="geometry">
            <Array as="points">
              <mxPoint x="-82" y="-460" />
              <mxPoint x="960" y="-460" />
              <mxPoint x="960" y="-360" />
            </Array>
          </mxGeometry>
        </mxCell>
        <mxCell id="SogY0RDH6iVAp-51KngU-5" value="Отправка сообщения&amp;nbsp;&lt;div&gt;с помощью чата&lt;/div&gt;" style="ellipse;whiteSpace=wrap;html=1;fontSize=14;fontFamily=Times New Roman;" parent="1" vertex="1">
          <mxGeometry x="636" y="104" width="149" height="77" as="geometry" />
        </mxCell>
        <mxCell id="S7Bjx_D4qbjC-CG2y2N_-1" value="Создание задач" style="ellipse;whiteSpace=wrap;html=1;fontSize=14;fontFamily=Times New Roman;" vertex="1" parent="1">
          <mxGeometry x="352" y="-320" width="147" height="80" as="geometry" />
        </mxCell>
        <mxCell id="S7Bjx_D4qbjC-CG2y2N_-2" value="Удаление задач" style="ellipse;whiteSpace=wrap;html=1;fontSize=14;fontFamily=Times New Roman;" vertex="1" parent="1">
          <mxGeometry x="360" y="-200" width="147" height="80" as="geometry" />
        </mxCell>
        <mxCell id="S7Bjx_D4qbjC-CG2y2N_-5" value="Создание&amp;nbsp;&lt;div&gt;пользователей&lt;br&gt;приложения&lt;/div&gt;" style="ellipse;whiteSpace=wrap;html=1;fontSize=14;fontFamily=Times New Roman;" vertex="1" parent="1">
          <mxGeometry x="290" y="10" width="154" height="85.5" as="geometry" />
        </mxCell>
        <mxCell id="S7Bjx_D4qbjC-CG2y2N_-6" value="Изменение пользователей приложения" style="ellipse;whiteSpace=wrap;html=1;fontSize=14;fontFamily=Times New Roman;" vertex="1" parent="1">
          <mxGeometry x="420" y="90" width="154" height="85.5" as="geometry" />
        </mxCell>
        <mxCell id="S7Bjx_D4qbjC-CG2y2N_-7" value="Удалени&lt;span style=&quot;color: rgba(0, 0, 0, 0); font-family: monospace; font-size: 0px; text-align: start; text-wrap: nowrap;&quot;&gt;%3CmxGraphModel%3E%3Croot%3E%3CmxCell%20id%3D%220%22%2F%3E%3CmxCell%20id%3D%221%22%20parent%3D%220%22%2F%3E%3CmxCell%20id%3D%222%22%20value%3D%22%D0%A3%D0%BF%D1%80%D0%B0%D0%B2%D0%BB%D0%B5%D0%BD%D0%B8%D0%B5%20%D0%BF%D0%BE%D0%BB%D1%8C%D0%B7%D0%BE%D0%B2%D0%B0%D1%82%D0%B5%D0%BB%D1%8F%D0%BC%D0%B8%20%D0%BF%D1%80%D0%B8%D0%BB%D0%BE%D0%B6%D0%B5%D0%BD%D0%B8%D1%8F%22%20style%3D%22ellipse%3BwhiteSpace%3Dwrap%3Bhtml%3D1%3BfontSize%3D14%3BfontFamily%3DTimes%20New%20Roman%3B%22%20vertex%3D%221%22%20parent%3D%221%22%3E%3CmxGeometry%20x%3D%22300%22%20y%3D%22117.5%22%20width%3D%22154%22%20height%3D%2285.5%22%20as%3D%22geometry%22%2F%3E%3C%2FmxCell%3E%3C%2Froot%3E%3C%2FmxGraphModel%3E&lt;/span&gt;е&amp;nbsp;&lt;div&gt;пользователей приложения&lt;/div&gt;" style="ellipse;whiteSpace=wrap;html=1;fontSize=14;fontFamily=Times New Roman;" vertex="1" parent="1">
          <mxGeometry x="430" y="185.5" width="154" height="85.5" as="geometry" />
        </mxCell>
        <mxCell id="S7Bjx_D4qbjC-CG2y2N_-8" value="Блокировка пользователей&lt;br&gt;приложения" style="ellipse;whiteSpace=wrap;html=1;fontSize=14;fontFamily=Times New Roman;" vertex="1" parent="1">
          <mxGeometry x="290" y="260" width="154" height="85.5" as="geometry" />
        </mxCell>
        <mxCell id="S7Bjx_D4qbjC-CG2y2N_-16" style="rounded=0;orthogonalLoop=1;jettySize=auto;html=1;exitX=1;exitY=0;exitDx=0;exitDy=0;entryX=0;entryY=0.5;entryDx=0;entryDy=0;dashed=1;endArrow=open;endFill=0;" edge="1" parent="1" source="S7Bjx_D4qbjC-CG2y2N_-14" target="S7Bjx_D4qbjC-CG2y2N_-1">
          <mxGeometry relative="1" as="geometry" />
        </mxCell>
        <mxCell id="S7Bjx_D4qbjC-CG2y2N_-17" style="rounded=0;orthogonalLoop=1;jettySize=auto;html=1;exitX=1;exitY=1;exitDx=0;exitDy=0;entryX=0;entryY=0.5;entryDx=0;entryDy=0;startArrow=none;startFill=0;dashed=1;endArrow=open;endFill=0;" edge="1" parent="1" source="S7Bjx_D4qbjC-CG2y2N_-14" target="S7Bjx_D4qbjC-CG2y2N_-2">
          <mxGeometry relative="1" as="geometry" />
        </mxCell>
        <mxCell id="S7Bjx_D4qbjC-CG2y2N_-14" value="Управление задачами" style="ellipse;whiteSpace=wrap;html=1;fontSize=14;fontFamily=Times New Roman;" vertex="1" parent="1">
          <mxGeometry x="114" y="-258" width="157" height="80" as="geometry" />
        </mxCell>
        <mxCell id="S7Bjx_D4qbjC-CG2y2N_-18" value="&lt;div style=&quot;text-align: center; font-size: 14px;&quot;&gt;&lt;span style=&quot;text-wrap: wrap; color: rgb(32, 33, 36); font-family: arial, sans-serif; font-size: 14px; text-align: left;&quot;&gt;«‎&lt;/span&gt;&lt;span style=&quot;text-align: left; font-size: 14px;&quot;&gt;включает&lt;/span&gt;&lt;span style=&quot;color: rgb(32, 33, 36); font-family: arial, sans-serif; font-size: 14px; text-align: left; text-wrap: wrap;&quot;&gt;»&lt;/span&gt;&lt;/div&gt;" style="edgeLabel;html=1;align=center;verticalAlign=middle;resizable=0;points=[];fontFamily=Times New Roman;fontSize=14;" connectable="0" vertex="1" parent="1">
          <mxGeometry x="249.9983613251589" y="340.00009420020825" as="geometry">
            <mxPoint x="46" y="-605" as="offset" />
          </mxGeometry>
        </mxCell>
        <mxCell id="S7Bjx_D4qbjC-CG2y2N_-19" value="&lt;div style=&quot;text-align: center; font-size: 14px;&quot;&gt;&lt;span style=&quot;text-wrap: wrap; color: rgb(32, 33, 36); font-family: arial, sans-serif; font-size: 14px; text-align: left;&quot;&gt;«‎&lt;/span&gt;&lt;span style=&quot;text-align: left; font-size: 14px;&quot;&gt;включает&lt;/span&gt;&lt;span style=&quot;color: rgb(32, 33, 36); font-family: arial, sans-serif; font-size: 14px; text-align: left; text-wrap: wrap;&quot;&gt;»&lt;/span&gt;&lt;/div&gt;" style="edgeLabel;html=1;align=center;verticalAlign=middle;resizable=0;points=[];fontFamily=Times New Roman;fontSize=14;" connectable="0" vertex="1" parent="1">
          <mxGeometry x="160.4383613251589" y="460.68009420020826" as="geometry">
            <mxPoint x="138" y="-638" as="offset" />
          </mxGeometry>
        </mxCell>
        <mxCell id="S7Bjx_D4qbjC-CG2y2N_-20" value="&lt;div style=&quot;text-align: center; font-size: 14px;&quot;&gt;&lt;span style=&quot;text-wrap: wrap; color: rgb(32, 33, 36); font-family: arial, sans-serif; font-size: 14px; text-align: left;&quot;&gt;«‎&lt;/span&gt;&lt;span style=&quot;text-align: left; font-size: 14px;&quot;&gt;включает&lt;/span&gt;&lt;span style=&quot;color: rgb(32, 33, 36); font-family: arial, sans-serif; font-size: 14px; text-align: left; text-wrap: wrap;&quot;&gt;»&lt;/span&gt;&lt;/div&gt;" style="edgeLabel;html=1;align=center;verticalAlign=middle;resizable=0;points=[];fontFamily=Times New Roman;fontSize=14;" connectable="0" vertex="1" parent="1">
          <mxGeometry x="182.9983613251589" y="470.68009420020826" as="geometry">
            <mxPoint x="93" y="-363" as="offset" />
          </mxGeometry>
        </mxCell>
        <mxCell id="S7Bjx_D4qbjC-CG2y2N_-21" value="&lt;div style=&quot;text-align: center; font-size: 14px;&quot;&gt;&lt;span style=&quot;text-wrap: wrap; color: rgb(32, 33, 36); font-family: arial, sans-serif; font-size: 14px; text-align: left;&quot;&gt;«‎&lt;/span&gt;&lt;span style=&quot;text-align: left; font-size: 14px;&quot;&gt;включает&lt;/span&gt;&lt;span style=&quot;color: rgb(32, 33, 36); font-family: arial, sans-serif; font-size: 14px; text-align: left; text-wrap: wrap;&quot;&gt;»&lt;/span&gt;&lt;/div&gt;" style="edgeLabel;html=1;align=center;verticalAlign=middle;resizable=0;points=[];fontFamily=Times New Roman;fontSize=14;" connectable="0" vertex="1" parent="1">
          <mxGeometry x="339.9983613251589" y="142.50009420020825" as="geometry" />
        </mxCell>
        <mxCell id="S7Bjx_D4qbjC-CG2y2N_-22" value="&lt;div style=&quot;text-align: center; font-size: 14px;&quot;&gt;&lt;span style=&quot;text-wrap: wrap; color: rgb(32, 33, 36); font-family: arial, sans-serif; font-size: 14px; text-align: left;&quot;&gt;«‎&lt;/span&gt;&lt;span style=&quot;text-align: left; font-size: 14px;&quot;&gt;включает&lt;/span&gt;&lt;span style=&quot;color: rgb(32, 33, 36); font-family: arial, sans-serif; font-size: 14px; text-align: left; text-wrap: wrap;&quot;&gt;»&lt;/span&gt;&lt;/div&gt;" style="edgeLabel;html=1;align=center;verticalAlign=middle;resizable=0;points=[];fontFamily=Times New Roman;fontSize=14;" connectable="0" vertex="1" parent="1">
          <mxGeometry x="339.9983613251589" y="194.00009420020825" as="geometry" />
        </mxCell>
        <mxCell id="S7Bjx_D4qbjC-CG2y2N_-23" value="&lt;div style=&quot;text-align: center; font-size: 14px;&quot;&gt;&lt;span style=&quot;text-wrap: wrap; color: rgb(32, 33, 36); font-family: arial, sans-serif; font-size: 14px; text-align: left;&quot;&gt;«‎&lt;/span&gt;&lt;span style=&quot;text-align: left; font-size: 14px;&quot;&gt;включает&lt;/span&gt;&lt;span style=&quot;color: rgb(32, 33, 36); font-family: arial, sans-serif; font-size: 14px; text-align: left; text-wrap: wrap;&quot;&gt;»&lt;/span&gt;&lt;/div&gt;" style="edgeLabel;html=1;align=center;verticalAlign=middle;resizable=0;points=[];fontFamily=Times New Roman;fontSize=14;" connectable="0" vertex="1" parent="1">
          <mxGeometry x="219.9983613251589" y="510.00009420020825" as="geometry">
            <mxPoint x="31" y="-270" as="offset" />
          </mxGeometry>
        </mxCell>
      </root>
    </mxGraphModel>
  </diagram>
  <diagram id="NIWhHKcva9rk7ykBD0zG" name="Page-4">
    <mxGraphModel dx="490" dy="936" grid="1" gridSize="10" guides="1" tooltips="1" connect="1" arrows="1" fold="1" page="1" pageScale="1" pageWidth="850" pageHeight="1100" math="0" shadow="0">
      <root>
        <mxCell id="0" />
        <mxCell id="1" parent="0" />
        <mxCell id="lA3SfNU7osvC8kT2hlyA-12" style="rounded=0;orthogonalLoop=1;jettySize=auto;html=1;startArrow=none;endArrow=classic;segment=10;sourcePerimeterSpacing=0;targetPerimeterSpacing=0;exitX=0.5;exitY=1;exitDx=0;exitDy=0;entryX=0.5;entryY=0;entryDx=0;entryDy=0;endFill=1;" edge="1" parent="1" source="279QVo58ta0nyGXPVDHl-1" target="lA3SfNU7osvC8kT2hlyA-1">
          <mxGeometry relative="1" as="geometry" />
        </mxCell>
        <mxCell id="279QVo58ta0nyGXPVDHl-1" value="&lt;font style=&quot;font-size: 14px;&quot;&gt;Начало&lt;/font&gt;" style="whiteSpace=wrap;html=1;rounded=1;arcSize=50;align=center;verticalAlign=middle;strokeWidth=1;autosize=1;spacing=4;treeFolding=1;treeMoving=1;newEdgeStyle={&quot;edgeStyle&quot;:&quot;entityRelationEdgeStyle&quot;,&quot;startArrow&quot;:&quot;none&quot;,&quot;endArrow&quot;:&quot;none&quot;,&quot;segment&quot;:10,&quot;curved&quot;:1,&quot;sourcePerimeterSpacing&quot;:0,&quot;targetPerimeterSpacing&quot;:0};fontFamily=Times New Roman;fontSize=14;" vertex="1" parent="1">
          <mxGeometry x="1130" y="169" width="210" height="30" as="geometry" />
        </mxCell>
        <mxCell id="lA3SfNU7osvC8kT2hlyA-13" style="edgeStyle=orthogonalEdgeStyle;rounded=0;orthogonalLoop=1;jettySize=auto;html=1;exitDx=0;exitDy=0;entryX=0.5;entryY=0;entryDx=0;entryDy=0;" edge="1" parent="1" source="lA3SfNU7osvC8kT2hlyA-26" target="lA3SfNU7osvC8kT2hlyA-2">
          <mxGeometry relative="1" as="geometry" />
        </mxCell>
        <mxCell id="lA3SfNU7osvC8kT2hlyA-1" value="&lt;div style=&quot;&quot;&gt;Пользователь нажимает&amp;nbsp;&lt;/div&gt;&lt;div style=&quot;&quot;&gt;на кнопку&amp;nbsp;&lt;span style=&quot;font-family: &amp;quot;Times New Roman&amp;quot;, serif; text-align: start; background-color: initial;&quot;&gt;&lt;font style=&quot;font-size: 14px;&quot;&gt;«&lt;/font&gt;&lt;/span&gt;&lt;span style=&quot;background-color: initial;&quot;&gt;Add User&lt;/span&gt;&lt;span style=&quot;background-color: initial; font-family: &amp;quot;Times New Roman&amp;quot;, serif; text-align: start;&quot;&gt;»&lt;/span&gt;&lt;/div&gt;&lt;span style=&quot;font-size: medium; text-align: start;&quot;&gt;&lt;/span&gt;" style="shape=parallelogram;html=1;strokeWidth=1;perimeter=parallelogramPerimeter;whiteSpace=wrap;rounded=0;arcSize=12;size=0.14285714285714285;fillStyle=auto;fontFamily=Times New Roman;fontSize=14;spacing=2;" vertex="1" parent="1">
          <mxGeometry x="1130" y="240" width="210" height="50" as="geometry" />
        </mxCell>
        <mxCell id="lA3SfNU7osvC8kT2hlyA-2" value="&lt;div style=&quot;font-size: 14px;&quot;&gt;Пользователь заполняет&amp;nbsp;&lt;/div&gt;&lt;div style=&quot;font-size: 14px;&quot;&gt;поля формы&lt;/div&gt;" style="shape=parallelogram;html=1;strokeWidth=1;perimeter=parallelogramPerimeter;whiteSpace=wrap;rounded=0;arcSize=12;size=0.14285714285714285;fillStyle=auto;fontFamily=Times New Roman;fontSize=14;spacing=2;" vertex="1" parent="1">
          <mxGeometry x="1130" y="340" width="210" height="50" as="geometry" />
        </mxCell>
        <mxCell id="lA3SfNU7osvC8kT2hlyA-16" style="edgeStyle=orthogonalEdgeStyle;rounded=0;orthogonalLoop=1;jettySize=auto;html=1;exitX=0.5;exitY=1;exitDx=0;exitDy=0;exitPerimeter=0;entryX=0.5;entryY=0;entryDx=0;entryDy=0;" edge="1" parent="1" source="lA3SfNU7osvC8kT2hlyA-3" target="lA3SfNU7osvC8kT2hlyA-4">
          <mxGeometry relative="1" as="geometry" />
        </mxCell>
        <mxCell id="lA3SfNU7osvC8kT2hlyA-3" value="&lt;div style=&quot;font-size: 14px;&quot;&gt;Введенные данные&amp;nbsp;&lt;/div&gt;&lt;div style=&quot;font-size: 14px;&quot;&gt;верны?&lt;/div&gt;" style="strokeWidth=1;html=1;shape=mxgraph.flowchart.decision;whiteSpace=wrap;fontFamily=Times New Roman;fontSize=14;spacing=2;" vertex="1" parent="1">
          <mxGeometry x="1131.25" y="420" width="207.5" height="100" as="geometry" />
        </mxCell>
        <mxCell id="lA3SfNU7osvC8kT2hlyA-17" style="edgeStyle=orthogonalEdgeStyle;rounded=0;orthogonalLoop=1;jettySize=auto;html=1;exitX=0.5;exitY=1;exitDx=0;exitDy=0;entryX=0.5;entryY=0;entryDx=0;entryDy=0;" edge="1" parent="1" source="lA3SfNU7osvC8kT2hlyA-4" target="lA3SfNU7osvC8kT2hlyA-5">
          <mxGeometry relative="1" as="geometry" />
        </mxCell>
        <mxCell id="lA3SfNU7osvC8kT2hlyA-4" value="Кнопка&amp;nbsp;&lt;span style=&quot;background-color: initial; font-family: &amp;quot;Times New Roman&amp;quot;, serif; text-align: start;&quot;&gt;«&lt;/span&gt;&lt;span style=&quot;background-color: initial; text-align: start;&quot;&gt;Save&lt;/span&gt;&lt;span style=&quot;background-color: initial; font-family: &amp;quot;Times New Roman&amp;quot;, serif; text-align: start;&quot;&gt;»&lt;/span&gt;&amp;nbsp;&lt;div&gt;становится активной&lt;/div&gt;" style="rounded=0;whiteSpace=wrap;html=1;absoluteArcSize=1;arcSize=14;strokeWidth=1;fontFamily=Times New Roman;fontSize=14;spacing=2;" vertex="1" parent="1">
          <mxGeometry x="1131.25" y="570" width="207.5" height="50" as="geometry" />
        </mxCell>
        <mxCell id="lA3SfNU7osvC8kT2hlyA-18" style="edgeStyle=orthogonalEdgeStyle;rounded=0;orthogonalLoop=1;jettySize=auto;html=1;exitX=0.5;exitY=1;exitDx=0;exitDy=0;entryX=0.5;entryY=0;entryDx=0;entryDy=0;" edge="1" parent="1" source="lA3SfNU7osvC8kT2hlyA-5" target="lA3SfNU7osvC8kT2hlyA-6">
          <mxGeometry relative="1" as="geometry" />
        </mxCell>
        <mxCell id="lA3SfNU7osvC8kT2hlyA-5" value="&lt;div style=&quot;font-size: 14px;&quot;&gt;Пользователь нажимает&amp;nbsp;&lt;/div&gt;&lt;div style=&quot;font-size: 14px;&quot;&gt;на кнопку&amp;nbsp;&lt;span style=&quot;background-color: initial; font-family: &amp;quot;Times New Roman&amp;quot;, serif; text-align: start;&quot;&gt;«&lt;/span&gt;&lt;span style=&quot;background-color: initial; text-align: start;&quot;&gt;Save&lt;/span&gt;&lt;span style=&quot;background-color: initial; font-family: &amp;quot;Times New Roman&amp;quot;, serif; text-align: start;&quot;&gt;»&lt;/span&gt;&lt;span style=&quot;background-color: initial;&quot;&gt;&amp;nbsp;&lt;/span&gt;&lt;/div&gt;" style="shape=parallelogram;html=1;strokeWidth=1;perimeter=parallelogramPerimeter;whiteSpace=wrap;rounded=0;arcSize=12;size=0.14285714285714285;fillStyle=auto;fontFamily=Times New Roman;fontSize=14;spacing=2;" vertex="1" parent="1">
          <mxGeometry x="1130" y="660" width="210" height="50" as="geometry" />
        </mxCell>
        <mxCell id="lA3SfNU7osvC8kT2hlyA-6" value="&lt;font style=&quot;font-size: 14px;&quot;&gt;&lt;span style=&quot;font-size: 14px;&quot;&gt;Сохранение пользователя&lt;/span&gt;&lt;/font&gt;" style="shape=process;whiteSpace=wrap;html=1;backgroundOutline=1;size=0.05238095238095238;fontFamily=Times New Roman;fontSize=14;" vertex="1" parent="1">
          <mxGeometry x="1130" y="750" width="210" height="50" as="geometry" />
        </mxCell>
        <mxCell id="lA3SfNU7osvC8kT2hlyA-20" style="edgeStyle=orthogonalEdgeStyle;rounded=0;orthogonalLoop=1;jettySize=auto;html=1;exitX=0.5;exitY=1;exitDx=0;exitDy=0;exitPerimeter=0;entryX=0.5;entryY=0;entryDx=0;entryDy=0;" edge="1" parent="1" source="lA3SfNU7osvC8kT2hlyA-7" target="lA3SfNU7osvC8kT2hlyA-8">
          <mxGeometry relative="1" as="geometry" />
        </mxCell>
        <mxCell id="lA3SfNU7osvC8kT2hlyA-23" style="edgeStyle=orthogonalEdgeStyle;rounded=0;orthogonalLoop=1;jettySize=auto;html=1;exitX=1;exitY=0.5;exitDx=0;exitDy=0;exitPerimeter=0;entryX=0.5;entryY=0;entryDx=0;entryDy=0;" edge="1" parent="1" source="lA3SfNU7osvC8kT2hlyA-7" target="lA3SfNU7osvC8kT2hlyA-9">
          <mxGeometry relative="1" as="geometry" />
        </mxCell>
        <mxCell id="lA3SfNU7osvC8kT2hlyA-7" value="&lt;div style=&quot;font-size: 14px;&quot;&gt;Пользователь создан&amp;nbsp;&lt;/div&gt;&lt;div style=&quot;font-size: 14px;&quot;&gt;успешно?&lt;/div&gt;" style="strokeWidth=1;html=1;shape=mxgraph.flowchart.decision;whiteSpace=wrap;fontFamily=Times New Roman;fontSize=14;spacing=2;" vertex="1" parent="1">
          <mxGeometry x="1131.25" y="840" width="207.5" height="100" as="geometry" />
        </mxCell>
        <mxCell id="lA3SfNU7osvC8kT2hlyA-8" value="&lt;font style=&quot;font-size: 14px;&quot;&gt;Конец&lt;/font&gt;" style="whiteSpace=wrap;html=1;rounded=1;arcSize=50;align=center;verticalAlign=middle;strokeWidth=1;autosize=1;spacing=4;treeFolding=1;treeMoving=1;newEdgeStyle={&quot;edgeStyle&quot;:&quot;entityRelationEdgeStyle&quot;,&quot;startArrow&quot;:&quot;none&quot;,&quot;endArrow&quot;:&quot;none&quot;,&quot;segment&quot;:10,&quot;curved&quot;:1,&quot;sourcePerimeterSpacing&quot;:0,&quot;targetPerimeterSpacing&quot;:0};fontFamily=Times New Roman;fontSize=14;" vertex="1" parent="1">
          <mxGeometry x="1130" y="990" width="210" height="30" as="geometry" />
        </mxCell>
        <mxCell id="lA3SfNU7osvC8kT2hlyA-30" style="edgeStyle=orthogonalEdgeStyle;rounded=0;orthogonalLoop=1;jettySize=auto;html=1;exitX=0.5;exitY=1;exitDx=0;exitDy=0;endArrow=none;endFill=0;" edge="1" parent="1" source="lA3SfNU7osvC8kT2hlyA-9" target="lA3SfNU7osvC8kT2hlyA-26">
          <mxGeometry relative="1" as="geometry">
            <Array as="points">
              <mxPoint x="1485" y="990" />
              <mxPoint x="1630" y="990" />
              <mxPoint x="1630" y="310" />
            </Array>
          </mxGeometry>
        </mxCell>
        <mxCell id="lA3SfNU7osvC8kT2hlyA-9" value="&lt;div style=&quot;font-size: 14px;&quot;&gt;Показать ошибку&amp;nbsp;&lt;/div&gt;&lt;div style=&quot;font-size: 14px;&quot;&gt;пользователю&lt;/div&gt;" style="shape=parallelogram;html=1;strokeWidth=1;perimeter=parallelogramPerimeter;whiteSpace=wrap;rounded=0;arcSize=12;size=0.14285714285714285;fillStyle=auto;fontFamily=Times New Roman;fontSize=14;spacing=2;" vertex="1" parent="1">
          <mxGeometry x="1380" y="920" width="210" height="50" as="geometry" />
        </mxCell>
        <mxCell id="lA3SfNU7osvC8kT2hlyA-14" style="edgeStyle=orthogonalEdgeStyle;rounded=0;orthogonalLoop=1;jettySize=auto;html=1;exitX=0.5;exitY=1;exitDx=0;exitDy=0;entryX=0.5;entryY=0;entryDx=0;entryDy=0;entryPerimeter=0;" edge="1" parent="1" source="lA3SfNU7osvC8kT2hlyA-2" target="lA3SfNU7osvC8kT2hlyA-3">
          <mxGeometry relative="1" as="geometry" />
        </mxCell>
        <mxCell id="lA3SfNU7osvC8kT2hlyA-19" style="edgeStyle=orthogonalEdgeStyle;rounded=0;orthogonalLoop=1;jettySize=auto;html=1;exitX=0.5;exitY=1;exitDx=0;exitDy=0;entryX=0.5;entryY=0;entryDx=0;entryDy=0;entryPerimeter=0;" edge="1" parent="1" source="lA3SfNU7osvC8kT2hlyA-6" target="lA3SfNU7osvC8kT2hlyA-7">
          <mxGeometry relative="1" as="geometry" />
        </mxCell>
        <mxCell id="lA3SfNU7osvC8kT2hlyA-21" value="Да" style="edgeLabel;html=1;align=center;verticalAlign=middle;resizable=0;points=[];fontFamily=Times New Roman;fontSize=14;" connectable="0" vertex="1" parent="1">
          <mxGeometry x="1690.0459311496481" y="612.9753174459493" as="geometry">
            <mxPoint x="-443" y="334" as="offset" />
          </mxGeometry>
        </mxCell>
        <mxCell id="lA3SfNU7osvC8kT2hlyA-22" value="Да" style="edgeLabel;html=1;align=center;verticalAlign=middle;resizable=0;points=[];fontFamily=Times New Roman;fontSize=14;" connectable="0" vertex="1" parent="1">
          <mxGeometry x="1690.0459311496481" y="198.99531744594924" as="geometry">
            <mxPoint x="-443" y="334" as="offset" />
          </mxGeometry>
        </mxCell>
        <mxCell id="lA3SfNU7osvC8kT2hlyA-24" value="Нет" style="edgeLabel;html=1;align=center;verticalAlign=middle;resizable=0;points=[];fontFamily=Times New Roman;fontSize=14;" connectable="0" vertex="1" parent="1">
          <mxGeometry x="1920.003958512127" y="620.0043398052148" as="geometry">
            <mxPoint x="-575" y="258" as="offset" />
          </mxGeometry>
        </mxCell>
        <mxCell id="lA3SfNU7osvC8kT2hlyA-27" value="" style="edgeStyle=orthogonalEdgeStyle;rounded=0;orthogonalLoop=1;jettySize=auto;html=1;exitX=0.5;exitY=1;exitDx=0;exitDy=0;entryDx=0;entryDy=0;endArrow=none;endFill=0;" edge="1" parent="1" source="lA3SfNU7osvC8kT2hlyA-1" target="lA3SfNU7osvC8kT2hlyA-26">
          <mxGeometry relative="1" as="geometry">
            <mxPoint x="1235" y="290" as="sourcePoint" />
            <mxPoint x="1235" y="330" as="targetPoint" />
          </mxGeometry>
        </mxCell>
        <mxCell id="lA3SfNU7osvC8kT2hlyA-26" value="" style="shape=waypoint;sketch=0;fillStyle=solid;size=6;pointerEvents=1;points=[];fillColor=none;resizable=0;rotatable=0;perimeter=centerPerimeter;snapToPoint=1;fontFamily=Times New Roman;fontSize=14;spacing=2;" vertex="1" parent="1">
          <mxGeometry x="1225" y="300" width="20" height="20" as="geometry" />
        </mxCell>
        <mxCell id="lA3SfNU7osvC8kT2hlyA-28" style="edgeStyle=orthogonalEdgeStyle;rounded=0;orthogonalLoop=1;jettySize=auto;html=1;exitX=0;exitY=0.5;exitDx=0;exitDy=0;exitPerimeter=0;entryX=0.23;entryY=0.56;entryDx=0;entryDy=0;entryPerimeter=0;endArrow=none;endFill=0;" edge="1" parent="1" source="lA3SfNU7osvC8kT2hlyA-3" target="lA3SfNU7osvC8kT2hlyA-26">
          <mxGeometry relative="1" as="geometry">
            <Array as="points">
              <mxPoint x="1110" y="470" />
              <mxPoint x="1110" y="310" />
            </Array>
          </mxGeometry>
        </mxCell>
        <mxCell id="lA3SfNU7osvC8kT2hlyA-29" value="Нет" style="edgeLabel;html=1;align=center;verticalAlign=middle;resizable=0;points=[];fontFamily=Times New Roman;fontSize=14;" connectable="0" vertex="1" parent="1">
          <mxGeometry x="1700.003958512127" y="198.99433980521485" as="geometry">
            <mxPoint x="-575" y="258" as="offset" />
          </mxGeometry>
        </mxCell>
      </root>
    </mxGraphModel>
  </diagram>
  <diagram id="GhJsCXTxe4bH0jxEAqsS" name="Page-5">
    <mxGraphModel dx="378" dy="858" grid="1" gridSize="10" guides="1" tooltips="1" connect="1" arrows="1" fold="1" page="1" pageScale="1" pageWidth="850" pageHeight="1100" math="0" shadow="0">
      <root>
        <mxCell id="0" />
        <mxCell id="1" parent="0" />
        <mxCell id="3ZcWHMJBQbPwuIUVLLK0-1" style="rounded=0;orthogonalLoop=1;jettySize=auto;html=1;startArrow=none;endArrow=classic;segment=10;sourcePerimeterSpacing=0;targetPerimeterSpacing=0;exitX=0.5;exitY=1;exitDx=0;exitDy=0;entryX=0.5;entryY=0;entryDx=0;entryDy=0;endFill=1;fontFamily=Times New Roman;fontSize=14;" edge="1" parent="1" target="3ZcWHMJBQbPwuIUVLLK0-4">
          <mxGeometry relative="1" as="geometry">
            <mxPoint x="1235" y="199" as="sourcePoint" />
          </mxGeometry>
        </mxCell>
        <mxCell id="3ZcWHMJBQbPwuIUVLLK0-4" value="&lt;div style=&quot;font-size: 14px;&quot;&gt;Пользователь нажимает&amp;nbsp;&lt;/div&gt;&lt;div style=&quot;font-size: 14px;&quot;&gt;на кнопку&amp;nbsp;&lt;span style=&quot;text-align: start; background-color: initial; font-size: 14px;&quot;&gt;&lt;font style=&quot;font-size: 14px;&quot;&gt;«&lt;/font&gt;&lt;/span&gt;&lt;span style=&quot;background-color: initial; font-size: 14px;&quot;&gt;Add task&lt;/span&gt;&lt;span style=&quot;background-color: initial; text-align: start; font-size: 14px;&quot;&gt;»&lt;/span&gt;&lt;/div&gt;&lt;span style=&quot;font-size: 14px; text-align: start;&quot;&gt;&lt;/span&gt;" style="shape=parallelogram;html=1;strokeWidth=1;perimeter=parallelogramPerimeter;whiteSpace=wrap;rounded=0;arcSize=12;size=0.14285714285714285;fillStyle=auto;fontFamily=Times New Roman;fontSize=14;spacing=2;" vertex="1" parent="1">
          <mxGeometry x="1130" y="240" width="210" height="50" as="geometry" />
        </mxCell>
        <mxCell id="2DdsBg8t2T_q1g3IDpAR-40" style="edgeStyle=orthogonalEdgeStyle;rounded=0;orthogonalLoop=1;jettySize=auto;html=1;exitX=0.5;exitY=1;exitDx=0;exitDy=0;" edge="1" parent="1" source="3ZcWHMJBQbPwuIUVLLK0-5" target="3ZcWHMJBQbPwuIUVLLK0-7">
          <mxGeometry relative="1" as="geometry" />
        </mxCell>
        <mxCell id="3ZcWHMJBQbPwuIUVLLK0-5" value="&lt;div style=&quot;font-size: 14px;&quot;&gt;Пользователь заполняет&amp;nbsp;&lt;/div&gt;&lt;div style=&quot;font-size: 14px;&quot;&gt;поля формы&lt;/div&gt;" style="shape=parallelogram;html=1;strokeWidth=1;perimeter=parallelogramPerimeter;whiteSpace=wrap;rounded=0;arcSize=12;size=0.14285714285714285;fillStyle=auto;fontFamily=Times New Roman;fontSize=14;spacing=2;" vertex="1" parent="1">
          <mxGeometry x="1130" y="860" width="210" height="50" as="geometry" />
        </mxCell>
        <mxCell id="2DdsBg8t2T_q1g3IDpAR-12" value="Нет" style="edgeStyle=orthogonalEdgeStyle;rounded=0;orthogonalLoop=1;jettySize=auto;html=1;exitX=1;exitY=0.5;exitDx=0;exitDy=0;exitPerimeter=0;entryX=0.5;entryY=0;entryDx=0;entryDy=0;fontFamily=Times New Roman;fontSize=14;" edge="1" parent="1" source="3ZcWHMJBQbPwuIUVLLK0-7" target="2DdsBg8t2T_q1g3IDpAR-11">
          <mxGeometry x="-0.726" y="10" relative="1" as="geometry">
            <mxPoint as="offset" />
          </mxGeometry>
        </mxCell>
        <mxCell id="3ZcWHMJBQbPwuIUVLLK0-7" value="&lt;div style=&quot;font-size: 14px;&quot;&gt;Введенные данные&amp;nbsp;&lt;/div&gt;&lt;div style=&quot;font-size: 14px;&quot;&gt;верны?&lt;/div&gt;" style="strokeWidth=1;html=1;shape=mxgraph.flowchart.decision;whiteSpace=wrap;fontFamily=Times New Roman;fontSize=14;spacing=2;" vertex="1" parent="1">
          <mxGeometry x="1131.25" y="960" width="207.5" height="100" as="geometry" />
        </mxCell>
        <mxCell id="3ZcWHMJBQbPwuIUVLLK0-8" style="edgeStyle=orthogonalEdgeStyle;rounded=0;orthogonalLoop=1;jettySize=auto;html=1;exitX=0.5;exitY=1;exitDx=0;exitDy=0;entryX=0.5;entryY=0;entryDx=0;entryDy=0;fontFamily=Times New Roman;fontSize=14;" edge="1" parent="1" source="3ZcWHMJBQbPwuIUVLLK0-9" target="3ZcWHMJBQbPwuIUVLLK0-11">
          <mxGeometry relative="1" as="geometry" />
        </mxCell>
        <mxCell id="3ZcWHMJBQbPwuIUVLLK0-9" value="Кнопка&amp;nbsp;&lt;span style=&quot;background-color: initial; text-align: start; font-size: 14px;&quot;&gt;«&lt;/span&gt;&lt;span style=&quot;background-color: initial; text-align: start; font-size: 14px;&quot;&gt;Save&lt;/span&gt;&lt;span style=&quot;background-color: initial; text-align: start; font-size: 14px;&quot;&gt;»&lt;/span&gt;&amp;nbsp;&lt;div style=&quot;font-size: 14px;&quot;&gt;становится активной&lt;/div&gt;" style="rounded=0;whiteSpace=wrap;html=1;absoluteArcSize=1;arcSize=14;strokeWidth=1;fontFamily=Times New Roman;fontSize=14;spacing=2;" vertex="1" parent="1">
          <mxGeometry x="1571.25" y="230" width="207.5" height="50" as="geometry" />
        </mxCell>
        <mxCell id="3ZcWHMJBQbPwuIUVLLK0-10" style="edgeStyle=orthogonalEdgeStyle;rounded=0;orthogonalLoop=1;jettySize=auto;html=1;exitX=0.5;exitY=1;exitDx=0;exitDy=0;entryX=0.5;entryY=0;entryDx=0;entryDy=0;fontFamily=Times New Roman;fontSize=14;" edge="1" parent="1" source="3ZcWHMJBQbPwuIUVLLK0-11" target="3ZcWHMJBQbPwuIUVLLK0-12">
          <mxGeometry relative="1" as="geometry" />
        </mxCell>
        <mxCell id="3ZcWHMJBQbPwuIUVLLK0-11" value="&lt;div style=&quot;font-size: 14px;&quot;&gt;Пользователь нажимает&amp;nbsp;&lt;/div&gt;&lt;div style=&quot;font-size: 14px;&quot;&gt;на кнопку&amp;nbsp;&lt;span style=&quot;background-color: initial; text-align: start; font-size: 14px;&quot;&gt;«&lt;/span&gt;&lt;span style=&quot;background-color: initial; text-align: start; font-size: 14px;&quot;&gt;Save&lt;/span&gt;&lt;span style=&quot;background-color: initial; text-align: start; font-size: 14px;&quot;&gt;»&lt;/span&gt;&lt;span style=&quot;background-color: initial; font-size: 14px;&quot;&gt;&amp;nbsp;&lt;/span&gt;&lt;/div&gt;" style="shape=parallelogram;html=1;strokeWidth=1;perimeter=parallelogramPerimeter;whiteSpace=wrap;rounded=0;arcSize=12;size=0.14285714285714285;fillStyle=auto;fontFamily=Times New Roman;fontSize=14;spacing=2;" vertex="1" parent="1">
          <mxGeometry x="1570" y="320" width="210" height="50" as="geometry" />
        </mxCell>
        <mxCell id="3ZcWHMJBQbPwuIUVLLK0-12" value="Запрос на сохранение задачи" style="shape=process;whiteSpace=wrap;html=1;backgroundOutline=1;size=0.05238095238095238;fontFamily=Times New Roman;fontSize=14;" vertex="1" parent="1">
          <mxGeometry x="1570" y="410" width="210" height="50" as="geometry" />
        </mxCell>
        <mxCell id="3ZcWHMJBQbPwuIUVLLK0-13" style="edgeStyle=orthogonalEdgeStyle;rounded=0;orthogonalLoop=1;jettySize=auto;html=1;exitDx=0;exitDy=0;exitPerimeter=0;entryX=0.5;entryY=0;entryDx=0;entryDy=0;fontFamily=Times New Roman;fontSize=14;" edge="1" parent="1" source="2DdsBg8t2T_q1g3IDpAR-32">
          <mxGeometry relative="1" as="geometry">
            <mxPoint x="1675" y="670" as="targetPoint" />
          </mxGeometry>
        </mxCell>
        <mxCell id="2DdsBg8t2T_q1g3IDpAR-29" value="Да" style="edgeLabel;html=1;align=center;verticalAlign=middle;resizable=0;points=[];fontFamily=Times New Roman;fontSize=14;" vertex="1" connectable="0" parent="3ZcWHMJBQbPwuIUVLLK0-13">
          <mxGeometry x="0.0079" y="1" relative="1" as="geometry">
            <mxPoint x="13" y="-20" as="offset" />
          </mxGeometry>
        </mxCell>
        <mxCell id="3ZcWHMJBQbPwuIUVLLK0-14" style="edgeStyle=orthogonalEdgeStyle;rounded=0;orthogonalLoop=1;jettySize=auto;html=1;exitX=1;exitY=0.5;exitDx=0;exitDy=0;exitPerimeter=0;entryX=0.5;entryY=0;entryDx=0;entryDy=0;fontFamily=Times New Roman;fontSize=14;" edge="1" parent="1" source="3ZcWHMJBQbPwuIUVLLK0-15" target="3ZcWHMJBQbPwuIUVLLK0-18">
          <mxGeometry relative="1" as="geometry" />
        </mxCell>
        <mxCell id="3ZcWHMJBQbPwuIUVLLK0-15" value="&lt;div style=&quot;font-size: 14px;&quot;&gt;Задача создана&amp;nbsp;&lt;/div&gt;&lt;div style=&quot;font-size: 14px;&quot;&gt;успешно?&lt;/div&gt;" style="strokeWidth=1;html=1;shape=mxgraph.flowchart.decision;whiteSpace=wrap;fontFamily=Times New Roman;fontSize=14;spacing=2;" vertex="1" parent="1">
          <mxGeometry x="1571.25" y="510" width="207.5" height="100" as="geometry" />
        </mxCell>
        <mxCell id="2DdsBg8t2T_q1g3IDpAR-35" style="edgeStyle=orthogonalEdgeStyle;rounded=0;orthogonalLoop=1;jettySize=auto;html=1;exitX=0.5;exitY=1;exitDx=0;exitDy=0;" edge="1" parent="1" source="3ZcWHMJBQbPwuIUVLLK0-18">
          <mxGeometry relative="1" as="geometry">
            <mxPoint x="1926.363636363636" y="720" as="targetPoint" />
          </mxGeometry>
        </mxCell>
        <mxCell id="3ZcWHMJBQbPwuIUVLLK0-18" value="&lt;div style=&quot;font-size: 14px;&quot;&gt;Показать ошибку&amp;nbsp;&lt;/div&gt;&lt;div style=&quot;font-size: 14px;&quot;&gt;пользователю&lt;/div&gt;" style="shape=parallelogram;html=1;strokeWidth=1;perimeter=parallelogramPerimeter;whiteSpace=wrap;rounded=0;arcSize=12;size=0.14285714285714285;fillStyle=auto;fontFamily=Times New Roman;fontSize=14;spacing=2;" vertex="1" parent="1">
          <mxGeometry x="1821.25" y="630" width="210" height="50" as="geometry" />
        </mxCell>
        <mxCell id="3ZcWHMJBQbPwuIUVLLK0-20" style="edgeStyle=orthogonalEdgeStyle;rounded=0;orthogonalLoop=1;jettySize=auto;html=1;exitX=0.5;exitY=1;exitDx=0;exitDy=0;entryX=0.5;entryY=0;entryDx=0;entryDy=0;entryPerimeter=0;fontFamily=Times New Roman;fontSize=14;" edge="1" parent="1" source="3ZcWHMJBQbPwuIUVLLK0-12" target="3ZcWHMJBQbPwuIUVLLK0-15">
          <mxGeometry relative="1" as="geometry" />
        </mxCell>
        <mxCell id="3ZcWHMJBQbPwuIUVLLK0-21" value="Да" style="edgeLabel;html=1;align=center;verticalAlign=middle;resizable=0;points=[];fontFamily=Times New Roman;fontSize=14;" connectable="0" vertex="1" parent="1">
          <mxGeometry x="1689.9959311496482" y="344.99531744594924" as="geometry">
            <mxPoint x="-443" y="334" as="offset" />
          </mxGeometry>
        </mxCell>
        <mxCell id="3ZcWHMJBQbPwuIUVLLK0-24" value="" style="edgeStyle=orthogonalEdgeStyle;rounded=0;orthogonalLoop=1;jettySize=auto;html=1;exitX=0.5;exitY=1;exitDx=0;exitDy=0;entryDx=0;entryDy=0;endArrow=classic;endFill=1;entryX=0.5;entryY=0;fontFamily=Times New Roman;fontSize=14;" edge="1" parent="1" source="3ZcWHMJBQbPwuIUVLLK0-4" target="bVZ5NgQz1rq8Zyc8or7x-1">
          <mxGeometry relative="1" as="geometry">
            <mxPoint x="1235" y="290" as="sourcePoint" />
            <mxPoint x="1235" y="310" as="targetPoint" />
          </mxGeometry>
        </mxCell>
        <mxCell id="bVZ5NgQz1rq8Zyc8or7x-5" style="edgeStyle=orthogonalEdgeStyle;rounded=0;orthogonalLoop=1;jettySize=auto;html=1;exitX=0.5;exitY=1;exitDx=0;exitDy=0;entryX=0.5;entryY=0;entryDx=0;entryDy=0;fontFamily=Times New Roman;fontSize=14;" edge="1" parent="1" source="bVZ5NgQz1rq8Zyc8or7x-1" target="bVZ5NgQz1rq8Zyc8or7x-3">
          <mxGeometry relative="1" as="geometry" />
        </mxCell>
        <mxCell id="bVZ5NgQz1rq8Zyc8or7x-1" value="&lt;div style=&quot;font-size: 14px;&quot;&gt;Отображение модального&amp;nbsp;&lt;/div&gt;&lt;div style=&quot;font-size: 14px;&quot;&gt;окна&lt;/div&gt;&lt;span style=&quot;font-size: 14px; text-align: start;&quot;&gt;&lt;/span&gt;" style="shape=parallelogram;html=1;strokeWidth=1;perimeter=parallelogramPerimeter;whiteSpace=wrap;rounded=0;arcSize=12;size=0.14285714285714285;fillStyle=auto;fontFamily=Times New Roman;fontSize=14;spacing=2;" vertex="1" parent="1">
          <mxGeometry x="1130" y="320" width="210" height="50" as="geometry" />
        </mxCell>
        <mxCell id="bVZ5NgQz1rq8Zyc8or7x-6" style="edgeStyle=orthogonalEdgeStyle;rounded=0;orthogonalLoop=1;jettySize=auto;html=1;exitX=0.5;exitY=1;exitDx=0;exitDy=0;entryX=0.5;entryY=0;entryDx=0;entryDy=0;fontFamily=Times New Roman;fontSize=14;" edge="1" parent="1" source="bVZ5NgQz1rq8Zyc8or7x-3" target="bVZ5NgQz1rq8Zyc8or7x-4">
          <mxGeometry relative="1" as="geometry" />
        </mxCell>
        <mxCell id="bVZ5NgQz1rq8Zyc8or7x-3" value="&lt;font style=&quot;font-size: 14px;&quot;&gt;&lt;span style=&quot;font-size: 14px;&quot;&gt;Запрос на получение разработчиков&lt;/span&gt;&lt;/font&gt;" style="shape=process;whiteSpace=wrap;html=1;backgroundOutline=1;size=0.05238095238095238;fontFamily=Times New Roman;fontSize=14;" vertex="1" parent="1">
          <mxGeometry x="1130" y="400" width="210" height="50" as="geometry" />
        </mxCell>
        <mxCell id="bVZ5NgQz1rq8Zyc8or7x-4" value="&lt;font style=&quot;font-size: 14px;&quot;&gt;&lt;span style=&quot;font-size: 14px;&quot;&gt;Запрос на получение&amp;nbsp;&lt;/span&gt;&lt;/font&gt;&lt;div style=&quot;font-size: 14px;&quot;&gt;&lt;font style=&quot;font-size: 14px;&quot;&gt;&lt;span style=&quot;font-size: 14px;&quot;&gt;клиентов&lt;/span&gt;&lt;/font&gt;&lt;/div&gt;" style="shape=process;whiteSpace=wrap;html=1;backgroundOutline=1;size=0.05238095238095238;fontFamily=Times New Roman;fontSize=14;" vertex="1" parent="1">
          <mxGeometry x="1130" y="480" width="210" height="50" as="geometry" />
        </mxCell>
        <mxCell id="bVZ5NgQz1rq8Zyc8or7x-7" value="&lt;div style=&quot;font-size: 14px;&quot;&gt;Хотя бы один&amp;nbsp;&lt;/div&gt;&lt;div style=&quot;font-size: 14px;&quot;&gt;разработчик найден?&lt;/div&gt;" style="strokeWidth=1;html=1;shape=mxgraph.flowchart.decision;whiteSpace=wrap;fontFamily=Times New Roman;fontSize=14;spacing=2;" vertex="1" parent="1">
          <mxGeometry x="1131.25" y="570" width="207.5" height="100" as="geometry" />
        </mxCell>
        <mxCell id="bVZ5NgQz1rq8Zyc8or7x-8" style="edgeStyle=orthogonalEdgeStyle;rounded=0;orthogonalLoop=1;jettySize=auto;html=1;exitX=0.5;exitY=1;exitDx=0;exitDy=0;entryX=0.5;entryY=0;entryDx=0;entryDy=0;entryPerimeter=0;fontFamily=Times New Roman;fontSize=14;" edge="1" parent="1" source="bVZ5NgQz1rq8Zyc8or7x-4" target="bVZ5NgQz1rq8Zyc8or7x-7">
          <mxGeometry relative="1" as="geometry" />
        </mxCell>
        <mxCell id="bVZ5NgQz1rq8Zyc8or7x-12" style="edgeStyle=orthogonalEdgeStyle;rounded=0;orthogonalLoop=1;jettySize=auto;html=1;exitDx=0;exitDy=0;exitPerimeter=0;entryX=0.5;entryY=0;entryDx=0;entryDy=0;fontFamily=Times New Roman;fontSize=14;" edge="1" parent="1" source="2DdsBg8t2T_q1g3IDpAR-16" target="3ZcWHMJBQbPwuIUVLLK0-5">
          <mxGeometry relative="1" as="geometry" />
        </mxCell>
        <mxCell id="bVZ5NgQz1rq8Zyc8or7x-10" value="&lt;div style=&quot;font-size: 14px;&quot;&gt;Хотя бы один&amp;nbsp;&lt;/div&gt;&lt;div style=&quot;font-size: 14px;&quot;&gt;клиент найден?&lt;/div&gt;" style="strokeWidth=1;html=1;shape=mxgraph.flowchart.decision;whiteSpace=wrap;fontFamily=Times New Roman;fontSize=14;spacing=2;" vertex="1" parent="1">
          <mxGeometry x="1131.25" y="710" width="207.5" height="100" as="geometry" />
        </mxCell>
        <mxCell id="bVZ5NgQz1rq8Zyc8or7x-11" style="edgeStyle=orthogonalEdgeStyle;rounded=0;orthogonalLoop=1;jettySize=auto;html=1;exitX=0.5;exitY=1;exitDx=0;exitDy=0;exitPerimeter=0;entryX=0.5;entryY=0;entryDx=0;entryDy=0;entryPerimeter=0;fontFamily=Times New Roman;fontSize=14;" edge="1" parent="1" source="bVZ5NgQz1rq8Zyc8or7x-7" target="bVZ5NgQz1rq8Zyc8or7x-10">
          <mxGeometry relative="1" as="geometry" />
        </mxCell>
        <mxCell id="bVZ5NgQz1rq8Zyc8or7x-13" value="Да" style="edgeLabel;html=1;align=center;verticalAlign=middle;resizable=0;points=[];fontFamily=Times New Roman;fontSize=14;" connectable="0" vertex="1" parent="1">
          <mxGeometry x="1689.9959311496482" y="489.99531744594924" as="geometry">
            <mxPoint x="-443" y="334" as="offset" />
          </mxGeometry>
        </mxCell>
        <mxCell id="bVZ5NgQz1rq8Zyc8or7x-15" value="Да" style="edgeLabel;html=1;align=center;verticalAlign=middle;resizable=0;points=[];fontFamily=Times New Roman;fontSize=14;" connectable="0" vertex="1" parent="1">
          <mxGeometry x="1689.9959311496482" y="1179.9953174459492" as="geometry">
            <mxPoint x="-443" y="334" as="offset" />
          </mxGeometry>
        </mxCell>
        <mxCell id="7Xy2tTEhyaYmofK4WQl4-1" value="&lt;font style=&quot;font-size: 14px;&quot;&gt;Нет&lt;/font&gt;" style="text;html=1;align=center;verticalAlign=middle;resizable=0;points=[];autosize=1;strokeColor=none;fillColor=none;fontFamily=Times New Roman;fontSize=14;" vertex="1" parent="1">
          <mxGeometry x="1771.25" y="530" width="50" height="30" as="geometry" />
        </mxCell>
        <mxCell id="xnXg-iKbl-dxyQ_vhOux-1" value="&lt;font style=&quot;font-size: 14px;&quot;&gt;Конец&lt;/font&gt;" style="whiteSpace=wrap;html=1;rounded=1;arcSize=50;align=center;verticalAlign=middle;strokeWidth=1;autosize=1;spacing=4;treeFolding=1;treeMoving=1;newEdgeStyle={&quot;edgeStyle&quot;:&quot;entityRelationEdgeStyle&quot;,&quot;startArrow&quot;:&quot;none&quot;,&quot;endArrow&quot;:&quot;none&quot;,&quot;segment&quot;:10,&quot;curved&quot;:1,&quot;sourcePerimeterSpacing&quot;:0,&quot;targetPerimeterSpacing&quot;:0};fontFamily=Times New Roman;fontSize=14;" vertex="1" parent="1">
          <mxGeometry x="1635" y="670" width="80" height="30" as="geometry" />
        </mxCell>
        <mxCell id="2DdsBg8t2T_q1g3IDpAR-1" value="&lt;font style=&quot;font-size: 14px;&quot;&gt;Начало&lt;/font&gt;" style="whiteSpace=wrap;html=1;rounded=1;arcSize=50;align=center;verticalAlign=middle;strokeWidth=1;autosize=1;spacing=4;treeFolding=1;treeMoving=1;newEdgeStyle={&quot;edgeStyle&quot;:&quot;entityRelationEdgeStyle&quot;,&quot;startArrow&quot;:&quot;none&quot;,&quot;endArrow&quot;:&quot;none&quot;,&quot;segment&quot;:10,&quot;curved&quot;:1,&quot;sourcePerimeterSpacing&quot;:0,&quot;targetPerimeterSpacing&quot;:0};fontFamily=Times New Roman;fontSize=14;" vertex="1" parent="1">
          <mxGeometry x="1190" y="180" width="90" height="30" as="geometry" />
        </mxCell>
        <mxCell id="2DdsBg8t2T_q1g3IDpAR-6" value="&lt;font style=&quot;font-size: 14px;&quot;&gt;2&lt;/font&gt;" style="strokeWidth=1;html=1;shape=mxgraph.flowchart.start_2;whiteSpace=wrap;fontFamily=Times New Roman;fontSize=14;" vertex="1" parent="1">
          <mxGeometry x="1090" y="1090" width="25" height="25" as="geometry" />
        </mxCell>
        <mxCell id="2DdsBg8t2T_q1g3IDpAR-9" style="edgeStyle=orthogonalEdgeStyle;rounded=0;orthogonalLoop=1;jettySize=auto;html=1;exitX=0;exitY=0.5;exitDx=0;exitDy=0;exitPerimeter=0;entryX=0.5;entryY=0;entryDx=0;entryDy=0;entryPerimeter=0;fontFamily=Times New Roman;fontSize=14;" edge="1" parent="1" source="3ZcWHMJBQbPwuIUVLLK0-7" target="2DdsBg8t2T_q1g3IDpAR-6">
          <mxGeometry relative="1" as="geometry" />
        </mxCell>
        <mxCell id="2DdsBg8t2T_q1g3IDpAR-10" value="Да" style="edgeLabel;html=1;align=center;verticalAlign=middle;resizable=0;points=[];fontFamily=Times New Roman;fontSize=14;" vertex="1" connectable="0" parent="2DdsBg8t2T_q1g3IDpAR-9">
          <mxGeometry x="0.0835" y="3" relative="1" as="geometry">
            <mxPoint x="-15" as="offset" />
          </mxGeometry>
        </mxCell>
        <mxCell id="2DdsBg8t2T_q1g3IDpAR-14" style="edgeStyle=orthogonalEdgeStyle;rounded=0;orthogonalLoop=1;jettySize=auto;html=1;exitX=0.5;exitY=1;exitDx=0;exitDy=0;endArrow=none;endFill=0;fontFamily=Times New Roman;fontSize=14;" edge="1" parent="1" source="2DdsBg8t2T_q1g3IDpAR-11">
          <mxGeometry relative="1" as="geometry">
            <mxPoint x="1570" y="840" as="targetPoint" />
          </mxGeometry>
        </mxCell>
        <mxCell id="2DdsBg8t2T_q1g3IDpAR-11" value="&lt;div style=&quot;font-size: 14px;&quot;&gt;Показать ошибку&amp;nbsp;&lt;/div&gt;&lt;div style=&quot;font-size: 14px;&quot;&gt;пользователю&lt;/div&gt;" style="shape=parallelogram;html=1;strokeWidth=1;perimeter=parallelogramPerimeter;whiteSpace=wrap;rounded=0;arcSize=12;size=0.14285714285714285;fillStyle=auto;fontFamily=Times New Roman;fontSize=14;spacing=2;" vertex="1" parent="1">
          <mxGeometry x="1338.75" y="1060" width="210" height="50" as="geometry" />
        </mxCell>
        <mxCell id="2DdsBg8t2T_q1g3IDpAR-15" value="" style="endArrow=none;html=1;rounded=0;fontFamily=Times New Roman;fontSize=14;" edge="1" parent="1">
          <mxGeometry width="50" height="50" relative="1" as="geometry">
            <mxPoint x="1235" y="840" as="sourcePoint" />
            <mxPoint x="1570" y="840" as="targetPoint" />
          </mxGeometry>
        </mxCell>
        <mxCell id="2DdsBg8t2T_q1g3IDpAR-18" value="&lt;font style=&quot;font-size: 14px;&quot;&gt;1&lt;/font&gt;" style="strokeWidth=1;html=1;shape=mxgraph.flowchart.start_2;whiteSpace=wrap;fontFamily=Times New Roman;fontSize=14;" vertex="1" parent="1">
          <mxGeometry x="1040" y="804" width="25" height="25" as="geometry" />
        </mxCell>
        <mxCell id="2DdsBg8t2T_q1g3IDpAR-21" style="edgeStyle=orthogonalEdgeStyle;rounded=0;orthogonalLoop=1;jettySize=auto;html=1;exitX=0;exitY=0.5;exitDx=0;exitDy=0;exitPerimeter=0;entryX=0.5;entryY=0;entryDx=0;entryDy=0;entryPerimeter=0;fontFamily=Times New Roman;fontSize=14;" edge="1" parent="1" target="2DdsBg8t2T_q1g3IDpAR-18">
          <mxGeometry relative="1" as="geometry">
            <mxPoint x="1132.25" y="760" as="sourcePoint" />
            <mxPoint x="1053.5" y="860" as="targetPoint" />
          </mxGeometry>
        </mxCell>
        <mxCell id="2DdsBg8t2T_q1g3IDpAR-25" value="Нет" style="edgeLabel;html=1;align=center;verticalAlign=middle;resizable=0;points=[];fontFamily=Times New Roman;fontSize=14;" vertex="1" connectable="0" parent="2DdsBg8t2T_q1g3IDpAR-21">
          <mxGeometry x="-0.4619" y="2" relative="1" as="geometry">
            <mxPoint x="6" y="-12" as="offset" />
          </mxGeometry>
        </mxCell>
        <mxCell id="2DdsBg8t2T_q1g3IDpAR-23" style="edgeStyle=orthogonalEdgeStyle;rounded=0;orthogonalLoop=1;jettySize=auto;html=1;exitX=0;exitY=0.5;exitDx=0;exitDy=0;exitPerimeter=0;endArrow=none;endFill=0;entryX=0.5;entryY=0;entryDx=0;entryDy=0;entryPerimeter=0;fontFamily=Times New Roman;fontSize=14;" edge="1" parent="1" target="2DdsBg8t2T_q1g3IDpAR-18">
          <mxGeometry relative="1" as="geometry">
            <mxPoint x="1053" y="790" as="targetPoint" />
            <mxPoint x="1132.25" y="620" as="sourcePoint" />
          </mxGeometry>
        </mxCell>
        <mxCell id="2DdsBg8t2T_q1g3IDpAR-24" value="Нет" style="edgeLabel;html=1;align=center;verticalAlign=middle;resizable=0;points=[];fontFamily=Times New Roman;fontSize=14;" vertex="1" connectable="0" parent="2DdsBg8t2T_q1g3IDpAR-23">
          <mxGeometry x="-0.6979" relative="1" as="geometry">
            <mxPoint x="10" y="-10" as="offset" />
          </mxGeometry>
        </mxCell>
        <mxCell id="2DdsBg8t2T_q1g3IDpAR-27" style="edgeStyle=orthogonalEdgeStyle;rounded=0;orthogonalLoop=1;jettySize=auto;html=1;exitX=0.5;exitY=1;exitDx=0;exitDy=0;exitPerimeter=0;entryX=0.5;entryY=0;entryDx=0;entryDy=0;fontFamily=Times New Roman;fontSize=14;" edge="1" parent="1" source="2DdsBg8t2T_q1g3IDpAR-26" target="3ZcWHMJBQbPwuIUVLLK0-9">
          <mxGeometry relative="1" as="geometry" />
        </mxCell>
        <mxCell id="2DdsBg8t2T_q1g3IDpAR-26" value="&lt;font style=&quot;font-size: 14px;&quot;&gt;2&lt;/font&gt;" style="strokeWidth=1;html=1;shape=mxgraph.flowchart.start_2;whiteSpace=wrap;fontFamily=Times New Roman;fontSize=14;" vertex="1" parent="1">
          <mxGeometry x="1663" y="170" width="25" height="25" as="geometry" />
        </mxCell>
        <mxCell id="2DdsBg8t2T_q1g3IDpAR-31" style="edgeStyle=orthogonalEdgeStyle;rounded=0;orthogonalLoop=1;jettySize=auto;html=1;exitX=1;exitY=0.5;exitDx=0;exitDy=0;exitPerimeter=0;endArrow=none;endFill=0;fontFamily=Times New Roman;fontSize=14;" edge="1" parent="1" source="2DdsBg8t2T_q1g3IDpAR-30">
          <mxGeometry relative="1" as="geometry">
            <mxPoint x="1675" y="642" as="targetPoint" />
          </mxGeometry>
        </mxCell>
        <mxCell id="2DdsBg8t2T_q1g3IDpAR-30" value="&lt;font style=&quot;font-size: 14px;&quot;&gt;1&lt;/font&gt;" style="strokeWidth=1;html=1;shape=mxgraph.flowchart.start_2;whiteSpace=wrap;fontFamily=Times New Roman;fontSize=14;" vertex="1" parent="1">
          <mxGeometry x="1520" y="630" width="25" height="25" as="geometry" />
        </mxCell>
        <mxCell id="2DdsBg8t2T_q1g3IDpAR-33" value="" style="edgeStyle=orthogonalEdgeStyle;rounded=0;orthogonalLoop=1;jettySize=auto;html=1;exitX=0.5;exitY=1;exitDx=0;exitDy=0;exitPerimeter=0;entryDx=0;entryDy=0;fontFamily=Times New Roman;fontSize=14;endArrow=none;endFill=0;" edge="1" parent="1" source="3ZcWHMJBQbPwuIUVLLK0-15" target="2DdsBg8t2T_q1g3IDpAR-32">
          <mxGeometry relative="1" as="geometry">
            <mxPoint x="1675" y="610" as="sourcePoint" />
            <mxPoint x="1675" y="670" as="targetPoint" />
          </mxGeometry>
        </mxCell>
        <mxCell id="2DdsBg8t2T_q1g3IDpAR-32" value="" style="shape=waypoint;sketch=0;fillStyle=solid;size=6;pointerEvents=1;points=[];fillColor=none;resizable=0;rotatable=0;perimeter=centerPerimeter;snapToPoint=1;fontFamily=Times New Roman;fontSize=14;spacing=2;strokeColor=default;" vertex="1" parent="1">
          <mxGeometry x="1665" y="632.5" width="20" height="20" as="geometry" />
        </mxCell>
        <mxCell id="2DdsBg8t2T_q1g3IDpAR-36" value="&lt;font style=&quot;font-size: 14px;&quot;&gt;3&lt;/font&gt;" style="strokeWidth=1;html=1;shape=mxgraph.flowchart.start_2;whiteSpace=wrap;fontFamily=Times New Roman;fontSize=14;" vertex="1" parent="1">
          <mxGeometry x="1913.75" y="720" width="25" height="25" as="geometry" />
        </mxCell>
        <mxCell id="2DdsBg8t2T_q1g3IDpAR-37" value="&lt;font style=&quot;font-size: 14px;&quot;&gt;3&lt;/font&gt;" style="strokeWidth=1;html=1;shape=mxgraph.flowchart.start_2;whiteSpace=wrap;fontFamily=Times New Roman;fontSize=14;" vertex="1" parent="1">
          <mxGeometry x="1106.25" y="827" width="25" height="25" as="geometry" />
        </mxCell>
        <mxCell id="2DdsBg8t2T_q1g3IDpAR-38" value="" style="edgeStyle=orthogonalEdgeStyle;rounded=0;orthogonalLoop=1;jettySize=auto;html=1;exitX=0.5;exitY=1;exitDx=0;exitDy=0;exitPerimeter=0;entryDx=0;entryDy=0;fontFamily=Times New Roman;fontSize=14;endArrow=none;endFill=0;" edge="1" parent="1" source="bVZ5NgQz1rq8Zyc8or7x-10" target="2DdsBg8t2T_q1g3IDpAR-16">
          <mxGeometry relative="1" as="geometry">
            <mxPoint x="1235" y="810" as="sourcePoint" />
            <mxPoint x="1235" y="860" as="targetPoint" />
          </mxGeometry>
        </mxCell>
        <mxCell id="2DdsBg8t2T_q1g3IDpAR-16" value="" style="shape=waypoint;sketch=0;fillStyle=solid;size=6;pointerEvents=1;points=[];fillColor=none;resizable=0;rotatable=0;perimeter=centerPerimeter;snapToPoint=1;fontFamily=Times New Roman;fontSize=14;spacing=2;strokeColor=default;" vertex="1" parent="1">
          <mxGeometry x="1225" y="830" width="20" height="20" as="geometry" />
        </mxCell>
        <mxCell id="2DdsBg8t2T_q1g3IDpAR-39" style="edgeStyle=orthogonalEdgeStyle;rounded=0;orthogonalLoop=1;jettySize=auto;html=1;exitX=1;exitY=0.5;exitDx=0;exitDy=0;exitPerimeter=0;entryX=0.071;entryY=0.743;entryDx=0;entryDy=0;entryPerimeter=0;endArrow=none;endFill=0;" edge="1" parent="1" source="2DdsBg8t2T_q1g3IDpAR-37" target="2DdsBg8t2T_q1g3IDpAR-16">
          <mxGeometry relative="1" as="geometry" />
        </mxCell>
      </root>
    </mxGraphModel>
  </diagram>
</mxfile>
